%TF.GenerationSoftware,KiCad,Pcbnew,6.0.2+dfsg-1*%
%TF.CreationDate,2023-04-22T23:05:18-04:00*%
%TF.ProjectId,solder_mask,736f6c64-6572-45f6-9d61-736b2e6b6963,rev?*%
%TF.SameCoordinates,Original*%
%TF.FileFunction,Copper,L1,Top*%
%TF.FilePolarity,Positive*%
%FSLAX46Y46*%
G04 Gerber Fmt 4.6, Leading zero omitted, Abs format (unit mm)*
G04 Created by KiCad (PCBNEW 6.0.2+dfsg-1) date 2023-04-22 23:05:18*
%MOMM*%
%LPD*%
G01*
G04 APERTURE LIST*
G04 Aperture macros list*
%AMRoundRect*
0 Rectangle with rounded corners*
0 $1 Rounding radius*
0 $2 $3 $4 $5 $6 $7 $8 $9 X,Y pos of 4 corners*
0 Add a 4 corners polygon primitive as box body*
4,1,4,$2,$3,$4,$5,$6,$7,$8,$9,$2,$3,0*
0 Add four circle primitives for the rounded corners*
1,1,$1+$1,$2,$3*
1,1,$1+$1,$4,$5*
1,1,$1+$1,$6,$7*
1,1,$1+$1,$8,$9*
0 Add four rect primitives between the rounded corners*
20,1,$1+$1,$2,$3,$4,$5,0*
20,1,$1+$1,$4,$5,$6,$7,0*
20,1,$1+$1,$6,$7,$8,$9,0*
20,1,$1+$1,$8,$9,$2,$3,0*%
G04 Aperture macros list end*
%ADD10C,0.250000*%
%TA.AperFunction,NonConductor*%
%ADD11C,0.250000*%
%TD*%
%ADD12C,0.125000*%
%TA.AperFunction,NonConductor*%
%ADD13C,0.125000*%
%TD*%
%TA.AperFunction,SMDPad,CuDef*%
%ADD14RoundRect,0.250000X0.400000X0.625000X-0.400000X0.625000X-0.400000X-0.625000X0.400000X-0.625000X0*%
%TD*%
%TA.AperFunction,SMDPad,CuDef*%
%ADD15RoundRect,0.075000X-0.075000X-0.675000X0.075000X-0.675000X0.075000X0.675000X-0.075000X0.675000X0*%
%TD*%
%TA.AperFunction,SMDPad,CuDef*%
%ADD16RoundRect,0.075000X-0.675000X-0.075000X0.675000X-0.075000X0.675000X0.075000X-0.675000X0.075000X0*%
%TD*%
%TA.AperFunction,ComponentPad*%
%ADD17C,1.600000*%
%TD*%
%TA.AperFunction,ComponentPad*%
%ADD18O,1.600000X1.600000*%
%TD*%
%TA.AperFunction,Conductor*%
%ADD19C,0.300000*%
%TD*%
G04 APERTURE END LIST*
D10*
D11*
X144476190Y-53452380D02*
X144476190Y-52452380D01*
X145047619Y-53452380D01*
X145047619Y-52452380D01*
X145523809Y-53452380D02*
X145523809Y-52452380D01*
X146571428Y-53357142D02*
X146523809Y-53404761D01*
X146380952Y-53452380D01*
X146285714Y-53452380D01*
X146142857Y-53404761D01*
X146047619Y-53309523D01*
X146000000Y-53214285D01*
X145952380Y-53023809D01*
X145952380Y-52880952D01*
X146000000Y-52690476D01*
X146047619Y-52595238D01*
X146142857Y-52500000D01*
X146285714Y-52452380D01*
X146380952Y-52452380D01*
X146523809Y-52500000D01*
X146571428Y-52547619D01*
X147000000Y-53452380D02*
X147000000Y-52452380D01*
X147571428Y-53452380D02*
X147142857Y-52880952D01*
X147571428Y-52452380D02*
X147000000Y-53023809D01*
D12*
D13*
X147823690Y-58738095D02*
X147323690Y-58738095D01*
X147561785Y-58738095D02*
X147561785Y-58452380D01*
X147823690Y-58452380D02*
X147323690Y-58452380D01*
X147323690Y-58119047D02*
X147323690Y-58071428D01*
X147347500Y-58023809D01*
X147371309Y-58000000D01*
X147418928Y-57976190D01*
X147514166Y-57952380D01*
X147633214Y-57952380D01*
X147728452Y-57976190D01*
X147776071Y-58000000D01*
X147799880Y-58023809D01*
X147823690Y-58071428D01*
X147823690Y-58119047D01*
X147799880Y-58166666D01*
X147776071Y-58190476D01*
X147728452Y-58214285D01*
X147633214Y-58238095D01*
X147514166Y-58238095D01*
X147418928Y-58214285D01*
X147371309Y-58190476D01*
X147347500Y-58166666D01*
X147323690Y-58119047D01*
X147776071Y-57738095D02*
X147799880Y-57714285D01*
X147823690Y-57738095D01*
X147799880Y-57761904D01*
X147776071Y-57738095D01*
X147823690Y-57738095D01*
X147323690Y-57261904D02*
X147323690Y-57500000D01*
X147561785Y-57523809D01*
X147537976Y-57500000D01*
X147514166Y-57452380D01*
X147514166Y-57333333D01*
X147537976Y-57285714D01*
X147561785Y-57261904D01*
X147609404Y-57238095D01*
X147728452Y-57238095D01*
X147776071Y-57261904D01*
X147799880Y-57285714D01*
X147823690Y-57333333D01*
X147823690Y-57452380D01*
X147799880Y-57500000D01*
X147776071Y-57523809D01*
X148128690Y-58809523D02*
X148628690Y-58690476D01*
X148271547Y-58595238D01*
X148628690Y-58500000D01*
X148128690Y-58380952D01*
X148128690Y-58095238D02*
X148128690Y-58047619D01*
X148152500Y-58000000D01*
X148176309Y-57976190D01*
X148223928Y-57952380D01*
X148319166Y-57928571D01*
X148438214Y-57928571D01*
X148533452Y-57952380D01*
X148581071Y-57976190D01*
X148604880Y-58000000D01*
X148628690Y-58047619D01*
X148628690Y-58095238D01*
X148604880Y-58142857D01*
X148581071Y-58166666D01*
X148533452Y-58190476D01*
X148438214Y-58214285D01*
X148319166Y-58214285D01*
X148223928Y-58190476D01*
X148176309Y-58166666D01*
X148152500Y-58142857D01*
X148128690Y-58095238D01*
X148581071Y-57714285D02*
X148604880Y-57690476D01*
X148628690Y-57714285D01*
X148604880Y-57738095D01*
X148581071Y-57714285D01*
X148628690Y-57714285D01*
X148128690Y-57238095D02*
X148128690Y-57476190D01*
X148366785Y-57500000D01*
X148342976Y-57476190D01*
X148319166Y-57428571D01*
X148319166Y-57309523D01*
X148342976Y-57261904D01*
X148366785Y-57238095D01*
X148414404Y-57214285D01*
X148533452Y-57214285D01*
X148581071Y-57238095D01*
X148604880Y-57261904D01*
X148628690Y-57309523D01*
X148628690Y-57428571D01*
X148604880Y-57476190D01*
X148581071Y-57500000D01*
D10*
D11*
X135452380Y-59619047D02*
X134452380Y-59619047D01*
X134928571Y-59619047D02*
X134928571Y-59047619D01*
X135452380Y-59047619D02*
X134452380Y-59047619D01*
X135452380Y-58047619D02*
X135452380Y-58619047D01*
X135452380Y-58333333D02*
X134452380Y-58333333D01*
X134595238Y-58428571D01*
X134690476Y-58523809D01*
X134738095Y-58619047D01*
X135357142Y-57619047D02*
X135404761Y-57571428D01*
X135452380Y-57619047D01*
X135404761Y-57666666D01*
X135357142Y-57619047D01*
X135452380Y-57619047D01*
X134452380Y-56952380D02*
X134452380Y-56857142D01*
X134500000Y-56761904D01*
X134547619Y-56714285D01*
X134642857Y-56666666D01*
X134833333Y-56619047D01*
X135071428Y-56619047D01*
X135261904Y-56666666D01*
X135357142Y-56714285D01*
X135404761Y-56761904D01*
X135452380Y-56857142D01*
X135452380Y-56952380D01*
X135404761Y-57047619D01*
X135357142Y-57095238D01*
X135261904Y-57142857D01*
X135071428Y-57190476D01*
X134833333Y-57190476D01*
X134642857Y-57142857D01*
X134547619Y-57095238D01*
X134500000Y-57047619D01*
X134452380Y-56952380D01*
X134452380Y-55523809D02*
X135452380Y-55285714D01*
X134738095Y-55095238D01*
X135452380Y-54904761D01*
X134452380Y-54666666D01*
X135452380Y-53761904D02*
X135452380Y-54333333D01*
X135452380Y-54047619D02*
X134452380Y-54047619D01*
X134595238Y-54142857D01*
X134690476Y-54238095D01*
X134738095Y-54333333D01*
X135357142Y-53333333D02*
X135404761Y-53285714D01*
X135452380Y-53333333D01*
X135404761Y-53380952D01*
X135357142Y-53333333D01*
X135452380Y-53333333D01*
X134452380Y-52666666D02*
X134452380Y-52571428D01*
X134500000Y-52476190D01*
X134547619Y-52428571D01*
X134642857Y-52380952D01*
X134833333Y-52333333D01*
X135071428Y-52333333D01*
X135261904Y-52380952D01*
X135357142Y-52428571D01*
X135404761Y-52476190D01*
X135452380Y-52571428D01*
X135452380Y-52666666D01*
X135404761Y-52761904D01*
X135357142Y-52809523D01*
X135261904Y-52857142D01*
X135071428Y-52904761D01*
X134833333Y-52904761D01*
X134642857Y-52857142D01*
X134547619Y-52809523D01*
X134500000Y-52761904D01*
X134452380Y-52666666D01*
D12*
D13*
X140023809Y-57323690D02*
X140023809Y-56823690D01*
X140023809Y-57061785D02*
X140595238Y-57061785D01*
X140595238Y-57323690D02*
X140595238Y-56823690D01*
X141261904Y-56823690D02*
X141357142Y-56823690D01*
X141452380Y-56847500D01*
X141500000Y-56871309D01*
X141547619Y-56918928D01*
X141595238Y-57014166D01*
X141595238Y-57133214D01*
X141547619Y-57228452D01*
X141500000Y-57276071D01*
X141452380Y-57299880D01*
X141357142Y-57323690D01*
X141261904Y-57323690D01*
X141166666Y-57299880D01*
X141119047Y-57276071D01*
X141071428Y-57228452D01*
X141023809Y-57133214D01*
X141023809Y-57014166D01*
X141071428Y-56918928D01*
X141119047Y-56871309D01*
X141166666Y-56847500D01*
X141261904Y-56823690D01*
X142023809Y-57276071D02*
X142071428Y-57299880D01*
X142023809Y-57323690D01*
X141976190Y-57299880D01*
X142023809Y-57276071D01*
X142023809Y-57323690D01*
X142976190Y-56823690D02*
X142500000Y-56823690D01*
X142452380Y-57061785D01*
X142500000Y-57037976D01*
X142595238Y-57014166D01*
X142833333Y-57014166D01*
X142928571Y-57037976D01*
X142976190Y-57061785D01*
X143023809Y-57109404D01*
X143023809Y-57228452D01*
X142976190Y-57276071D01*
X142928571Y-57299880D01*
X142833333Y-57323690D01*
X142595238Y-57323690D01*
X142500000Y-57299880D01*
X142452380Y-57276071D01*
X139880952Y-57628690D02*
X140119047Y-58128690D01*
X140309523Y-57771547D01*
X140500000Y-58128690D01*
X140738095Y-57628690D01*
X141642857Y-58128690D02*
X141071428Y-58128690D01*
X141357142Y-58128690D02*
X141357142Y-57628690D01*
X141261904Y-57700119D01*
X141166666Y-57747738D01*
X141071428Y-57771547D01*
X142071428Y-58081071D02*
X142119047Y-58104880D01*
X142071428Y-58128690D01*
X142023809Y-58104880D01*
X142071428Y-58081071D01*
X142071428Y-58128690D01*
X142738095Y-57628690D02*
X142833333Y-57628690D01*
X142928571Y-57652500D01*
X142976190Y-57676309D01*
X143023809Y-57723928D01*
X143071428Y-57819166D01*
X143071428Y-57938214D01*
X143023809Y-58033452D01*
X142976190Y-58081071D01*
X142928571Y-58104880D01*
X142833333Y-58128690D01*
X142738095Y-58128690D01*
X142642857Y-58104880D01*
X142595238Y-58081071D01*
X142547619Y-58033452D01*
X142500000Y-57938214D01*
X142500000Y-57819166D01*
X142547619Y-57723928D01*
X142595238Y-57676309D01*
X142642857Y-57652500D01*
X142738095Y-57628690D01*
D14*
%TO.P,REF\u002A\u002A,1*%
%TO.N,N/C*%
X140500000Y-62500000D03*
%TO.P,REF\u002A\u002A,2*%
X137400000Y-62500000D03*
%TD*%
D15*
%TO.P,REF\u002A\u002A,32*%
%TO.N,N/C*%
X139750000Y-53325000D03*
%TO.P,REF\u002A\u002A,31*%
X140250000Y-53325000D03*
%TO.P,REF\u002A\u002A,30*%
X140750000Y-53325000D03*
%TO.P,REF\u002A\u002A,29*%
X141250000Y-53325000D03*
%TO.P,REF\u002A\u002A,28*%
X141750000Y-53325000D03*
%TO.P,REF\u002A\u002A,27*%
X142250000Y-53325000D03*
%TO.P,REF\u002A\u002A,26*%
X142750000Y-53325000D03*
%TO.P,REF\u002A\u002A,25*%
X143250000Y-53325000D03*
D16*
%TO.P,REF\u002A\u002A,24*%
X144675000Y-54750000D03*
%TO.P,REF\u002A\u002A,23*%
X144675000Y-55250000D03*
%TO.P,REF\u002A\u002A,22*%
X144675000Y-55750000D03*
%TO.P,REF\u002A\u002A,21*%
X144675000Y-56250000D03*
%TO.P,REF\u002A\u002A,20*%
X144675000Y-56750000D03*
%TO.P,REF\u002A\u002A,19*%
X144675000Y-57250000D03*
%TO.P,REF\u002A\u002A,18*%
X144675000Y-57750000D03*
%TO.P,REF\u002A\u002A,17*%
X144675000Y-58250000D03*
D15*
%TO.P,REF\u002A\u002A,16*%
X143250000Y-59675000D03*
%TO.P,REF\u002A\u002A,15*%
X142750000Y-59675000D03*
%TO.P,REF\u002A\u002A,14*%
X142250000Y-59675000D03*
%TO.P,REF\u002A\u002A,13*%
X141750000Y-59675000D03*
%TO.P,REF\u002A\u002A,12*%
X141250000Y-59675000D03*
%TO.P,REF\u002A\u002A,11*%
X140750000Y-59675000D03*
%TO.P,REF\u002A\u002A,10*%
X140250000Y-59675000D03*
%TO.P,REF\u002A\u002A,9*%
X139750000Y-59675000D03*
D16*
%TO.P,REF\u002A\u002A,8*%
X138325000Y-58250000D03*
%TO.P,REF\u002A\u002A,7*%
X138325000Y-57750000D03*
%TO.P,REF\u002A\u002A,6*%
X138325000Y-57250000D03*
%TO.P,REF\u002A\u002A,5*%
X138325000Y-56750000D03*
%TO.P,REF\u002A\u002A,4*%
X138325000Y-56250000D03*
%TO.P,REF\u002A\u002A,3*%
X138325000Y-55750000D03*
%TO.P,REF\u002A\u002A,2*%
X138325000Y-55250000D03*
%TO.P,REF\u002A\u002A,1*%
X138325000Y-54750000D03*
%TD*%
D17*
%TO.P,REF\u002A\u002A,1*%
%TO.N,N/C*%
X148000000Y-50920000D03*
D18*
%TO.P,REF\u002A\u002A,2*%
X148000000Y-61080000D03*
%TD*%
D14*
%TO.P,REF\u002A\u002A,1*%
%TO.N,N/C*%
X145600000Y-50500000D03*
%TO.P,REF\u002A\u002A,2*%
X142500000Y-50500000D03*
%TD*%
D17*
%TO.P,REF\u002A\u002A,1*%
%TO.N,N/C*%
X135000000Y-50920000D03*
D18*
%TO.P,REF\u002A\u002A,2*%
X135000000Y-61080000D03*
%TD*%
D14*
%TO.P,REF\u002A\u002A,1*%
%TO.N,N/C*%
X140550000Y-50500000D03*
%TO.P,REF\u002A\u002A,2*%
X137450000Y-50500000D03*
%TD*%
%TO.P,REF\u002A\u002A,1*%
%TO.N,N/C*%
X145550000Y-62500000D03*
%TO.P,REF\u002A\u002A,2*%
X142450000Y-62500000D03*
%TD*%
D19*
%TO.N,*%
X144675000Y-57750000D02*
X145750000Y-57750000D01*
X145750000Y-57750000D02*
X148500000Y-55000000D01*
X148500000Y-55000000D02*
X148500000Y-51420000D01*
X148500000Y-51420000D02*
X148000000Y-50920000D01*
X141250000Y-54750000D02*
X142250000Y-55750000D01*
X142250000Y-55750000D02*
X144675000Y-55750000D01*
X138325000Y-54750000D02*
X141250000Y-54750000D01*
X144670048Y-55754952D02*
X144675000Y-55750000D01*
X136000000Y-60080000D02*
X136000000Y-59000000D01*
X135000000Y-61080000D02*
X136000000Y-60080000D01*
X136000000Y-59000000D02*
X136750000Y-58250000D01*
X136750000Y-58250000D02*
X138325000Y-58250000D01*
X139750000Y-53325000D02*
X139750000Y-52250000D01*
X139750000Y-52250000D02*
X138000000Y-50500000D01*
X138000000Y-50500000D02*
X137450000Y-50500000D01*
X140550000Y-50500000D02*
X142500000Y-50500000D01*
X140500000Y-62500000D02*
X142450000Y-62500000D01*
X147000000Y-61050000D02*
X147000000Y-61000000D01*
X145550000Y-62500000D02*
X147000000Y-61050000D01*
X147000000Y-61000000D02*
X147920000Y-61000000D01*
X147920000Y-61000000D02*
X148000000Y-61080000D01*
X135000000Y-61080000D02*
X135980000Y-61080000D01*
X135980000Y-61080000D02*
X137400000Y-62500000D01*
X145600000Y-50500000D02*
X147580000Y-50500000D01*
X147580000Y-50500000D02*
X148000000Y-50920000D01*
X135000000Y-50920000D02*
X135420000Y-50500000D01*
X135420000Y-50500000D02*
X137450000Y-50500000D01*
%TD*%
M02*
