%TF.GenerationSoftware,KiCad,Pcbnew,6.0.2+dfsg-1*%
%TF.CreationDate,2023-04-22T23:05:18-04:00*%
%TF.ProjectId,solder_mask,736f6c64-6572-45f6-9d61-736b2e6b6963,rev?*%
%TF.SameCoordinates,Original*%
%TF.FileFunction,Soldermask,Top*%
%TF.FilePolarity,Negative*%
%FSLAX46Y46*%
G04 Gerber Fmt 4.6, Leading zero omitted, Abs format (unit mm)*
G04 Created by KiCad (PCBNEW 6.0.2+dfsg-1) date 2023-04-22 23:05:18*
%MOMM*%
%LPD*%
G01*
G04 APERTURE LIST*
G04 Aperture macros list*
%AMRoundRect*
0 Rectangle with rounded corners*
0 $1 Rounding radius*
0 $2 $3 $4 $5 $6 $7 $8 $9 X,Y pos of 4 corners*
0 Add a 4 corners polygon primitive as box body*
4,1,4,$2,$3,$4,$5,$6,$7,$8,$9,$2,$3,0*
0 Add four circle primitives for the rounded corners*
1,1,$1+$1,$2,$3*
1,1,$1+$1,$4,$5*
1,1,$1+$1,$6,$7*
1,1,$1+$1,$8,$9*
0 Add four rect primitives between the rounded corners*
20,1,$1+$1,$2,$3,$4,$5,0*
20,1,$1+$1,$4,$5,$6,$7,0*
20,1,$1+$1,$6,$7,$8,$9,0*
20,1,$1+$1,$8,$9,$2,$3,0*%
G04 Aperture macros list end*
%ADD10RoundRect,0.250000X0.400000X0.625000X-0.400000X0.625000X-0.400000X-0.625000X0.400000X-0.625000X0*%
%ADD11RoundRect,0.075000X-0.075000X-0.675000X0.075000X-0.675000X0.075000X0.675000X-0.075000X0.675000X0*%
%ADD12RoundRect,0.075000X-0.675000X-0.075000X0.675000X-0.075000X0.675000X0.075000X-0.675000X0.075000X0*%
%ADD13C,1.600000*%
%ADD14O,1.600000X1.600000*%
G04 APERTURE END LIST*
D10*
%TO.C,REF\u002A\u002A*%
X140500000Y-62500000D03*
X137400000Y-62500000D03*
%TD*%
D11*
%TO.C,REF\u002A\u002A*%
X139750000Y-53325000D03*
X140250000Y-53325000D03*
X140750000Y-53325000D03*
X141250000Y-53325000D03*
X141750000Y-53325000D03*
X142250000Y-53325000D03*
X142750000Y-53325000D03*
X143250000Y-53325000D03*
D12*
X144675000Y-54750000D03*
X144675000Y-55250000D03*
X144675000Y-55750000D03*
X144675000Y-56250000D03*
X144675000Y-56750000D03*
X144675000Y-57250000D03*
X144675000Y-57750000D03*
X144675000Y-58250000D03*
D11*
X143250000Y-59675000D03*
X142750000Y-59675000D03*
X142250000Y-59675000D03*
X141750000Y-59675000D03*
X141250000Y-59675000D03*
X140750000Y-59675000D03*
X140250000Y-59675000D03*
X139750000Y-59675000D03*
D12*
X138325000Y-58250000D03*
X138325000Y-57750000D03*
X138325000Y-57250000D03*
X138325000Y-56750000D03*
X138325000Y-56250000D03*
X138325000Y-55750000D03*
X138325000Y-55250000D03*
X138325000Y-54750000D03*
%TD*%
D13*
%TO.C,REF\u002A\u002A*%
X148000000Y-50920000D03*
D14*
X148000000Y-61080000D03*
%TD*%
D10*
%TO.C,REF\u002A\u002A*%
X145600000Y-50500000D03*
X142500000Y-50500000D03*
%TD*%
D13*
%TO.C,REF\u002A\u002A*%
X135000000Y-50920000D03*
D14*
X135000000Y-61080000D03*
%TD*%
D10*
%TO.C,REF\u002A\u002A*%
X140550000Y-50500000D03*
X137450000Y-50500000D03*
%TD*%
%TO.C,REF\u002A\u002A*%
X145550000Y-62500000D03*
X142450000Y-62500000D03*
%TD*%
M02*
