%TF.GenerationSoftware,KiCad,Pcbnew,6.0.7-f9a2dced07~116~ubuntu20.04.1*%
%TF.CreationDate,2022-08-13T13:29:47-04:00*%
%TF.ProjectId,mask_mill,6d61736b-5f6d-4696-9c6c-2e6b69636164,rev?*%
%TF.SameCoordinates,Original*%
%TF.FileFunction,Copper,L1,Top*%
%TF.FilePolarity,Positive*%
%FSLAX46Y46*%
G04 Gerber Fmt 4.6, Leading zero omitted, Abs format (unit mm)*
G04 Created by KiCad (PCBNEW 6.0.7-f9a2dced07~116~ubuntu20.04.1) date 2022-08-13 13:29:47*
%MOMM*%
%LPD*%
G01*
G04 APERTURE LIST*
G04 Aperture macros list*
%AMRoundRect*
0 Rectangle with rounded corners*
0 $1 Rounding radius*
0 $2 $3 $4 $5 $6 $7 $8 $9 X,Y pos of 4 corners*
0 Add a 4 corners polygon primitive as box body*
4,1,4,$2,$3,$4,$5,$6,$7,$8,$9,$2,$3,0*
0 Add four circle primitives for the rounded corners*
1,1,$1+$1,$2,$3*
1,1,$1+$1,$4,$5*
1,1,$1+$1,$6,$7*
1,1,$1+$1,$8,$9*
0 Add four rect primitives between the rounded corners*
20,1,$1+$1,$2,$3,$4,$5,0*
20,1,$1+$1,$4,$5,$6,$7,0*
20,1,$1+$1,$6,$7,$8,$9,0*
20,1,$1+$1,$8,$9,$2,$3,0*%
G04 Aperture macros list end*
%TA.AperFunction,SMDPad,CuDef*%
%ADD10R,0.650000X2.000000*%
%TD*%
%TA.AperFunction,SMDPad,CuDef*%
%ADD11RoundRect,0.150000X-0.825000X-0.150000X0.825000X-0.150000X0.825000X0.150000X-0.825000X0.150000X0*%
%TD*%
%TA.AperFunction,SMDPad,CuDef*%
%ADD12RoundRect,0.250000X0.625000X-0.312500X0.625000X0.312500X-0.625000X0.312500X-0.625000X-0.312500X0*%
%TD*%
%TA.AperFunction,Conductor*%
%ADD13C,0.350000*%
%TD*%
G04 APERTURE END LIST*
D10*
%TO.P,REF\u002A\u002A,1*%
%TO.N,N/C*%
X136210000Y-80450000D03*
%TO.P,REF\u002A\u002A,2*%
X138110000Y-80450000D03*
%TO.P,REF\u002A\u002A,3*%
X137160000Y-77030000D03*
%TD*%
D11*
%TO.P,REF\u002A\u002A,1*%
%TO.N,N/C*%
X127065000Y-76835000D03*
%TO.P,REF\u002A\u002A,2*%
X127065000Y-78105000D03*
%TO.P,REF\u002A\u002A,3*%
X127065000Y-79375000D03*
%TO.P,REF\u002A\u002A,4*%
X127065000Y-80645000D03*
%TO.P,REF\u002A\u002A,5*%
X132015000Y-80645000D03*
%TO.P,REF\u002A\u002A,6*%
X132015000Y-79375000D03*
%TO.P,REF\u002A\u002A,7*%
X132015000Y-78105000D03*
%TO.P,REF\u002A\u002A,8*%
X132015000Y-76835000D03*
%TD*%
D12*
%TO.P,REF\u002A\u002A,1*%
%TO.N,N/C*%
X137160000Y-87822500D03*
%TO.P,REF\u002A\u002A,2*%
X137160000Y-84897500D03*
%TD*%
%TO.P,REF\u002A\u002A,1*%
%TO.N,N/C*%
X132080000Y-87822500D03*
%TO.P,REF\u002A\u002A,2*%
X132080000Y-84897500D03*
%TD*%
%TO.P,REF\u002A\u002A,1*%
%TO.N,N/C*%
X127000000Y-87822500D03*
%TO.P,REF\u002A\u002A,2*%
X127000000Y-84897500D03*
%TD*%
D13*
%TO.N,*%
X138110000Y-80450000D02*
X138110000Y-79696373D01*
X138110000Y-79696373D02*
X137342404Y-78928777D01*
X137342404Y-78928777D02*
X132461223Y-78928777D01*
X132461223Y-78928777D02*
X132015000Y-79375000D01*
X136210000Y-80450000D02*
X136210000Y-83947500D01*
X136210000Y-83947500D02*
X137160000Y-84897500D01*
X132015000Y-78105000D02*
X134895000Y-78105000D01*
X134895000Y-78105000D02*
X135970000Y-77030000D01*
X135970000Y-77030000D02*
X137160000Y-77030000D01*
X132015000Y-79375000D02*
X130375000Y-79375000D01*
X130375000Y-79375000D02*
X129105000Y-78105000D01*
X129105000Y-78105000D02*
X127065000Y-78105000D01*
X137160000Y-87822500D02*
X134385454Y-87822500D01*
X134735139Y-82006791D02*
X134735139Y-81199961D01*
X134385454Y-87822500D02*
X133151927Y-86588973D01*
X133151927Y-86588973D02*
X131203357Y-86588973D01*
X131203357Y-86588973D02*
X129483136Y-84868752D01*
X129483136Y-84868752D02*
X129483136Y-83483441D01*
X129483136Y-83483441D02*
X130350858Y-82615719D01*
X130350858Y-82615719D02*
X134126211Y-82615719D01*
X134126211Y-82615719D02*
X134735139Y-82006791D01*
X134735139Y-81199961D02*
X134141435Y-80606257D01*
X134141435Y-80606257D02*
X132053743Y-80606257D01*
X132053743Y-80606257D02*
X132015000Y-80645000D01*
X132080000Y-84897500D02*
X132934197Y-85751697D01*
X132934197Y-85751697D02*
X138751697Y-85751697D01*
X138751697Y-85751697D02*
X139500000Y-86500000D01*
X139500000Y-86500000D02*
X139500000Y-87500000D01*
X139500000Y-87500000D02*
X139177500Y-87822500D01*
X139177500Y-87822500D02*
X137160000Y-87822500D01*
X127000000Y-84897500D02*
X128397500Y-84897500D01*
X128397500Y-84897500D02*
X131322500Y-87822500D01*
X131322500Y-87822500D02*
X132080000Y-87822500D01*
X124000000Y-84000000D02*
X125000000Y-85000000D01*
X124000000Y-82500000D02*
X124000000Y-84000000D01*
X126897500Y-85000000D02*
X127000000Y-84897500D01*
X127065000Y-80645000D02*
X125855000Y-80645000D01*
X125855000Y-80645000D02*
X124000000Y-82500000D01*
X125000000Y-85000000D02*
X126897500Y-85000000D01*
%TD*%
M02*
