M48
; DRILL file {KiCad 6.0.10-86aedd382b~118~ubuntu20.04.1} date Fri 23 Dec 2022 10:28:13 AM EST
; FORMAT={-:-/ absolute / inch / decimal}
; #@! TF.CreationDate,2022-12-23T10:28:13-05:00
; #@! TF.GenerationSoftware,Kicad,Pcbnew,6.0.10-86aedd382b~118~ubuntu20.04.1
; #@! TF.FileFunction,Plated,1,2,PTH
FMAT,2
INCH
; #@! TA.AperFunction,Plated,PTH,ComponentDrill
T1C0.0315
; #@! TA.AperFunction,Plated,PTH,ComponentDrill
T2C0.0394
; #@! TA.AperFunction,Plated,PTH,ComponentDrill
T3C0.0433
%
G90
G05
T1
X3.6697Y-2.2154
X3.7697Y-2.1154
X3.8697Y-2.2154
T2
X3.3941Y-2.7051
X3.3941Y-2.8051
X3.4941Y-2.7051
X3.4941Y-2.8051
X3.5941Y-2.7051
X3.5941Y-2.8051
X3.7933Y-2.8051
X3.8933Y-2.8051
X3.9933Y-2.8051
X4.0933Y-2.8051
X4.1933Y-2.8051
X4.2933Y-2.8051
X4.3933Y-2.8051
X4.4933Y-2.8051
X4.6555Y-2.5071
X4.6555Y-2.6071
X4.6555Y-2.7071
X4.6555Y-2.8071
T3
X3.3661Y-2.1358
X3.3661Y-2.3917
X3.5433Y-2.1358
X3.5433Y-2.3917
T0
M30
