M48
; DRILL file {KiCad 6.0.7-f9a2dced07~116~ubuntu20.04.1} date Mon 19 Dec 2022 04:56:52 PM EST
; FORMAT={-:-/ absolute / inch / decimal}
; #@! TF.CreationDate,2022-12-19T16:56:52-05:00
; #@! TF.GenerationSoftware,Kicad,Pcbnew,6.0.7-f9a2dced07~116~ubuntu20.04.1
; #@! TF.FileFunction,Plated,1,2,PTH
FMAT,2
INCH
; #@! TA.AperFunction,Plated,PTH,ComponentDrill
T1C0.0315
; #@! TA.AperFunction,Plated,PTH,ComponentDrill
T2C0.0394
; #@! TA.AperFunction,Plated,PTH,ComponentDrill
T3C0.0433
%
G90
G05
T1
X6.4664Y-2.3575
X6.5664Y-2.2575
X6.6664Y-2.3575
T2
X6.7083Y-2.1485
X6.8083Y-2.1485
X6.8155Y-2.8297
X6.8155Y-2.9297
X6.9083Y-2.1485
X6.9155Y-2.8297
X6.9155Y-2.9297
X7.0083Y-2.1485
X7.0155Y-2.8297
X7.0155Y-2.9297
X7.185Y-2.2293
X7.185Y-2.3293
X7.185Y-2.4293
X7.185Y-2.5293
X7.185Y-2.6293
X7.185Y-2.7293
X7.185Y-2.8293
X7.185Y-2.9293
T3
X6.1729Y-2.1908
X6.1729Y-2.4467
X6.3501Y-2.1908
X6.3501Y-2.4467
T0
M30
