%TF.GenerationSoftware,KiCad,Pcbnew,6.0.7-f9a2dced07~116~ubuntu20.04.1*%
%TF.CreationDate,2022-12-19T16:56:46-05:00*%
%TF.ProjectId,stm32_prototype,73746d33-325f-4707-926f-746f74797065,rev?*%
%TF.SameCoordinates,Original*%
%TF.FileFunction,Copper,L1,Top*%
%TF.FilePolarity,Positive*%
%FSLAX46Y46*%
G04 Gerber Fmt 4.6, Leading zero omitted, Abs format (unit mm)*
G04 Created by KiCad (PCBNEW 6.0.7-f9a2dced07~116~ubuntu20.04.1) date 2022-12-19 16:56:46*
%MOMM*%
%LPD*%
G01*
G04 APERTURE LIST*
G04 Aperture macros list*
%AMRoundRect*
0 Rectangle with rounded corners*
0 $1 Rounding radius*
0 $2 $3 $4 $5 $6 $7 $8 $9 X,Y pos of 4 corners*
0 Add a 4 corners polygon primitive as box body*
4,1,4,$2,$3,$4,$5,$6,$7,$8,$9,$2,$3,0*
0 Add four circle primitives for the rounded corners*
1,1,$1+$1,$2,$3*
1,1,$1+$1,$4,$5*
1,1,$1+$1,$6,$7*
1,1,$1+$1,$8,$9*
0 Add four rect primitives between the rounded corners*
20,1,$1+$1,$2,$3,$4,$5,0*
20,1,$1+$1,$4,$5,$6,$7,0*
20,1,$1+$1,$6,$7,$8,$9,0*
20,1,$1+$1,$8,$9,$2,$3,0*%
G04 Aperture macros list end*
%TA.AperFunction,ComponentPad*%
%ADD10R,1.700000X1.700000*%
%TD*%
%TA.AperFunction,ComponentPad*%
%ADD11O,1.700000X1.700000*%
%TD*%
%TA.AperFunction,SMDPad,CuDef*%
%ADD12RoundRect,0.250000X0.400000X0.625000X-0.400000X0.625000X-0.400000X-0.625000X0.400000X-0.625000X0*%
%TD*%
%TA.AperFunction,SMDPad,CuDef*%
%ADD13RoundRect,0.250000X0.625000X-0.400000X0.625000X0.400000X-0.625000X0.400000X-0.625000X-0.400000X0*%
%TD*%
%TA.AperFunction,SMDPad,CuDef*%
%ADD14RoundRect,0.250000X-0.400000X-0.625000X0.400000X-0.625000X0.400000X0.625000X-0.400000X0.625000X0*%
%TD*%
%TA.AperFunction,ComponentPad*%
%ADD15C,1.500000*%
%TD*%
%TA.AperFunction,ComponentPad*%
%ADD16R,1.500000X1.500000*%
%TD*%
%TA.AperFunction,SMDPad,CuDef*%
%ADD17RoundRect,0.075000X-0.662500X-0.075000X0.662500X-0.075000X0.662500X0.075000X-0.662500X0.075000X0*%
%TD*%
%TA.AperFunction,SMDPad,CuDef*%
%ADD18RoundRect,0.075000X-0.075000X-0.662500X0.075000X-0.662500X0.075000X0.662500X-0.075000X0.662500X0*%
%TD*%
%TA.AperFunction,ComponentPad*%
%ADD19C,2.000000*%
%TD*%
%TA.AperFunction,Conductor*%
%ADD20C,0.250000*%
%TD*%
G04 APERTURE END LIST*
D10*
%TO.P,J2,1,Pin_1*%
%TO.N,VCC*%
X178011938Y-54572923D03*
D11*
%TO.P,J2,2,Pin_2*%
%TO.N,GND*%
X175471938Y-54572923D03*
%TO.P,J2,3,Pin_3*%
%TO.N,/SCL*%
X172931938Y-54572923D03*
%TO.P,J2,4,Pin_4*%
%TO.N,/SDA*%
X170391938Y-54572923D03*
%TD*%
D12*
%TO.P,JU1,1*%
%TO.N,VCC*%
X167274740Y-66508114D03*
%TO.P,JU1,2*%
X164174740Y-66508114D03*
%TD*%
D13*
%TO.P,JU1,1*%
%TO.N,Net-(U1-Pad7)*%
X164998232Y-75758103D03*
%TO.P,JU1,2*%
X164998232Y-72658103D03*
%TD*%
D14*
%TO.P,JU1,1*%
%TO.N,GND*%
X172209522Y-57797612D03*
%TO.P,JU1,2*%
X175309522Y-57797612D03*
%TD*%
%TO.P,JU1,1*%
%TO.N,GND*%
X177388990Y-57577938D03*
%TO.P,JU1,2*%
X180488990Y-57577938D03*
%TD*%
D10*
%TO.P,J1,1,Pin_1*%
%TO.N,VCC*%
X178193548Y-71875408D03*
D11*
%TO.P,J1,2,Pin_2*%
X178193548Y-74415408D03*
%TO.P,J1,3,Pin_3*%
%TO.N,/BOOT0*%
X175653548Y-71875408D03*
%TO.P,J1,4,Pin_4*%
%TO.N,/BOOT1*%
X175653548Y-74415408D03*
%TO.P,J1,5,Pin_5*%
%TO.N,GND*%
X173113548Y-71875408D03*
%TO.P,J1,6,Pin_6*%
X173113548Y-74415408D03*
%TD*%
D14*
%TO.P,JU1,1*%
%TO.N,GND*%
X167288027Y-71927128D03*
%TO.P,JU1,2*%
X170388027Y-71927128D03*
%TD*%
D15*
%TO.P,U2,3,VO*%
%TO.N,VCC*%
X164245363Y-59881297D03*
%TO.P,U2,2,VI*%
%TO.N,/USB_5v*%
X166785363Y-57341297D03*
D16*
%TO.P,U2,1,GND*%
%TO.N,GND*%
X169325363Y-59881297D03*
%TD*%
D14*
%TO.P,JU1,2*%
%TO.N,Net-(U1-Pad7)*%
X167918417Y-64000000D03*
%TO.P,JU1,1*%
X164818417Y-64000000D03*
%TD*%
D17*
%TO.P,U1,1,VBAT*%
%TO.N,VCC*%
X169837500Y-61250000D03*
%TO.P,U1,2,PC13*%
%TO.N,unconnected-(U1-Pad2)*%
X169837500Y-61750000D03*
%TO.P,U1,3,PC14*%
%TO.N,unconnected-(U1-Pad3)*%
X169837500Y-62250000D03*
%TO.P,U1,4,PC15*%
%TO.N,unconnected-(U1-Pad4)*%
X169837500Y-62750000D03*
%TO.P,U1,5,PD0*%
%TO.N,unconnected-(U1-Pad5)*%
X169837500Y-63250000D03*
%TO.P,U1,6,PD1*%
%TO.N,unconnected-(U1-Pad6)*%
X169837500Y-63750000D03*
%TO.P,U1,7,NRST*%
%TO.N,Net-(U1-Pad7)*%
X169837500Y-64250000D03*
%TO.P,U1,8,VSSA*%
%TO.N,GND*%
X169837500Y-64750000D03*
%TO.P,U1,9,VDDA*%
%TO.N,VCC*%
X169837500Y-65250000D03*
%TO.P,U1,10,PA0*%
%TO.N,unconnected-(U1-Pad10)*%
X169837500Y-65750000D03*
%TO.P,U1,11,PA1*%
%TO.N,unconnected-(U1-Pad11)*%
X169837500Y-66250000D03*
%TO.P,U1,12,PA2*%
%TO.N,unconnected-(U1-Pad12)*%
X169837500Y-66750000D03*
D18*
%TO.P,U1,13,PA3*%
%TO.N,unconnected-(U1-Pad13)*%
X171250000Y-68162500D03*
%TO.P,U1,14,PA4*%
%TO.N,unconnected-(U1-Pad14)*%
X171750000Y-68162500D03*
%TO.P,U1,15,PA5*%
%TO.N,unconnected-(U1-Pad15)*%
X172250000Y-68162500D03*
%TO.P,U1,16,PA6*%
%TO.N,unconnected-(U1-Pad16)*%
X172750000Y-68162500D03*
%TO.P,U1,17,PA7*%
%TO.N,unconnected-(U1-Pad17)*%
X173250000Y-68162500D03*
%TO.P,U1,18,PB0*%
%TO.N,unconnected-(U1-Pad18)*%
X173750000Y-68162500D03*
%TO.P,U1,19,PB1*%
%TO.N,unconnected-(U1-Pad19)*%
X174250000Y-68162500D03*
%TO.P,U1,20,PB2*%
%TO.N,/BOOT1*%
X174750000Y-68162500D03*
%TO.P,U1,21,PB10*%
%TO.N,unconnected-(U1-Pad21)*%
X175250000Y-68162500D03*
%TO.P,U1,22,PB11*%
%TO.N,unconnected-(U1-Pad22)*%
X175750000Y-68162500D03*
%TO.P,U1,23,VSS*%
%TO.N,GND*%
X176250000Y-68162500D03*
%TO.P,U1,24,VDD*%
%TO.N,VCC*%
X176750000Y-68162500D03*
D17*
%TO.P,U1,25,PB12*%
%TO.N,/INT*%
X178162500Y-66750000D03*
%TO.P,U1,26,PB13*%
%TO.N,unconnected-(U1-Pad26)*%
X178162500Y-66250000D03*
%TO.P,U1,27,PB14*%
%TO.N,unconnected-(U1-Pad27)*%
X178162500Y-65750000D03*
%TO.P,U1,28,PB15*%
%TO.N,unconnected-(U1-Pad28)*%
X178162500Y-65250000D03*
%TO.P,U1,29,PA8*%
%TO.N,unconnected-(U1-Pad29)*%
X178162500Y-64750000D03*
%TO.P,U1,30,PA9*%
%TO.N,unconnected-(U1-Pad30)*%
X178162500Y-64250000D03*
%TO.P,U1,31,PA10*%
%TO.N,unconnected-(U1-Pad31)*%
X178162500Y-63750000D03*
%TO.P,U1,32,PA11*%
%TO.N,unconnected-(U1-Pad32)*%
X178162500Y-63250000D03*
%TO.P,U1,33,PA12*%
%TO.N,unconnected-(U1-Pad33)*%
X178162500Y-62750000D03*
%TO.P,U1,34,PA13*%
%TO.N,unconnected-(U1-Pad34)*%
X178162500Y-62250000D03*
%TO.P,U1,35,VSS*%
%TO.N,GND*%
X178162500Y-61750000D03*
%TO.P,U1,36,VDD*%
%TO.N,VCC*%
X178162500Y-61250000D03*
D18*
%TO.P,U1,37,PA14*%
%TO.N,unconnected-(U1-Pad37)*%
X176750000Y-59837500D03*
%TO.P,U1,38,PA15*%
%TO.N,unconnected-(U1-Pad38)*%
X176250000Y-59837500D03*
%TO.P,U1,39,PB3*%
%TO.N,unconnected-(U1-Pad39)*%
X175750000Y-59837500D03*
%TO.P,U1,40,PB4*%
%TO.N,unconnected-(U1-Pad40)*%
X175250000Y-59837500D03*
%TO.P,U1,41,PB5*%
%TO.N,unconnected-(U1-Pad41)*%
X174750000Y-59837500D03*
%TO.P,U1,42,PB6*%
%TO.N,/SCL*%
X174250000Y-59837500D03*
%TO.P,U1,43,PB7*%
%TO.N,/SDA*%
X173750000Y-59837500D03*
%TO.P,U1,44,BOOT0*%
%TO.N,/BOOT0*%
X173250000Y-59837500D03*
%TO.P,U1,45,PB8*%
%TO.N,unconnected-(U1-Pad45)*%
X172750000Y-59837500D03*
%TO.P,U1,46,PB9*%
%TO.N,unconnected-(U1-Pad46)*%
X172250000Y-59837500D03*
%TO.P,U1,47,VSS*%
%TO.N,GND*%
X171750000Y-59837500D03*
%TO.P,U1,48,VDD*%
%TO.N,VCC*%
X171250000Y-59837500D03*
%TD*%
D19*
%TO.P,SW1,1,A*%
%TO.N,GND*%
X161292766Y-62146223D03*
X161292766Y-55646223D03*
%TO.P,SW1,2,B*%
%TO.N,Net-(U1-Pad7)*%
X156792766Y-55646223D03*
X156792766Y-62146223D03*
%TD*%
D10*
%TO.P,J3,1,Pin_1*%
%TO.N,VCC*%
X182500000Y-56625000D03*
D11*
%TO.P,J3,2,Pin_2*%
%TO.N,GND*%
X182500000Y-59165000D03*
%TO.P,J3,3,Pin_3*%
%TO.N,/SCL*%
X182500000Y-61705000D03*
%TO.P,J3,4,Pin_4*%
%TO.N,/SDA*%
X182500000Y-64245000D03*
%TO.P,J3,5,Pin_5*%
%TO.N,unconnected-(J3-Pad5)*%
X182500000Y-66785000D03*
%TO.P,J3,6,Pin_6*%
%TO.N,unconnected-(J3-Pad6)*%
X182500000Y-69325000D03*
%TO.P,J3,7,Pin_7*%
%TO.N,unconnected-(J3-Pad7)*%
X182500000Y-71865000D03*
%TO.P,J3,8,Pin_8*%
%TO.N,/INT*%
X182500000Y-74405000D03*
%TD*%
D12*
%TO.P,C5,2*%
%TO.N,GND*%
X159296968Y-67770789D03*
%TO.P,C5,1*%
%TO.N,VCC*%
X162396968Y-67770789D03*
%TD*%
%TO.P,C4,1*%
%TO.N,/USB_5v*%
X162416504Y-65273269D03*
%TO.P,C4,2*%
%TO.N,GND*%
X159316504Y-65273269D03*
%TD*%
%TO.P,C3,1*%
%TO.N,VCC*%
X162331384Y-72733371D03*
%TO.P,C3,2*%
%TO.N,GND*%
X159231384Y-72733371D03*
%TD*%
%TO.P,C2,1*%
%TO.N,VCC*%
X162377280Y-70284872D03*
%TO.P,C2,2*%
%TO.N,GND*%
X159277280Y-70284872D03*
%TD*%
D14*
%TO.P,C1,1*%
%TO.N,Net-(U1-Pad7)*%
X164220789Y-54387203D03*
%TO.P,C1,2*%
%TO.N,GND*%
X167320789Y-54387203D03*
%TD*%
D20*
%TO.N,/SDA*%
X170391938Y-54572923D02*
X170391193Y-54573668D01*
%TO.N,Net-(U1-Pad7)*%
X164818417Y-63999950D02*
G75*
G02*
X165349650Y-64531233I-17J-531250D01*
G01*
X164998232Y-72658103D02*
X165349650Y-72306685D01*
X165349650Y-72306685D02*
X165349650Y-64531233D01*
%TO.N,VCC*%
X168532854Y-65249940D02*
G75*
G03*
X167274740Y-66508114I46J-1258160D01*
G01*
X168532854Y-65250000D02*
X169837500Y-65250000D01*
%TO.N,Net-(U1-Pad7)*%
X159386373Y-75758134D02*
G75*
G02*
X156792766Y-73164496I27J2593634D01*
G01*
X159386373Y-75758103D02*
X164998232Y-75758103D01*
X156792766Y-62146223D02*
X156792766Y-73164496D01*
%TO.N,GND*%
X175309523Y-54735339D02*
G75*
G02*
X175471938Y-54572923I162377J39D01*
G01*
X175309522Y-54735339D02*
X175309522Y-57797612D01*
%TO.N,/SDA*%
X171497855Y-56055562D02*
G75*
G02*
X170391938Y-54949621I45J1105962D01*
G01*
X170391938Y-54572923D02*
X170391938Y-54949621D01*
X173749962Y-56705094D02*
G75*
G03*
X173100444Y-56055538I-649562J-6D01*
G01*
X171497855Y-56055538D02*
X173100444Y-56055538D01*
X173750000Y-56705094D02*
X173750000Y-59837500D01*
%TO.N,/BOOT0*%
X175653548Y-71875408D02*
X175653548Y-72511683D01*
X174787303Y-76584566D02*
X170108021Y-76584566D01*
X171146403Y-56890178D02*
G75*
G02*
X170654903Y-57381703I-491503J-22D01*
G01*
X169674957Y-57381669D02*
G75*
G03*
X168042369Y-59014291I43J-1632631D01*
G01*
X176879752Y-73737945D02*
G75*
G03*
X176276713Y-73134848I-603052J45D01*
G01*
X166249650Y-67844874D02*
X166249650Y-63551654D01*
X166704112Y-62454564D02*
G75*
G03*
X166249650Y-63551654I1097088J-1097136D01*
G01*
X167550798Y-68811850D02*
X167216626Y-68811850D01*
X167550798Y-68811873D02*
G75*
G02*
X168713027Y-69974079I2J-1162227D01*
G01*
X171461248Y-56575428D02*
G75*
G03*
X171146428Y-56890178I-48J-314772D01*
G01*
X166249650Y-67844874D02*
G75*
G03*
X167216626Y-68811850I966950J-26D01*
G01*
X168042369Y-60385732D02*
X168042369Y-59014291D01*
X168713034Y-75189572D02*
G75*
G03*
X170108021Y-76584566I1394966J-28D01*
G01*
X174787303Y-76584610D02*
G75*
G03*
X176879810Y-74492059I-3J2092510D01*
G01*
X168042386Y-60385732D02*
G75*
G02*
X167525806Y-61632822I-1763686J32D01*
G01*
X173250000Y-57112150D02*
X173250000Y-59837500D01*
X173250042Y-57112150D02*
G75*
G03*
X172713208Y-56575358I-536842J-50D01*
G01*
X176276713Y-73134852D02*
G75*
G02*
X175653548Y-72511683I-13J623152D01*
G01*
X176879810Y-73737945D02*
X176879810Y-74492059D01*
X168713027Y-75189572D02*
X168713027Y-69974079D01*
X166704089Y-62454541D02*
X167525807Y-61632823D01*
X169674957Y-57381703D02*
X170654903Y-57381703D01*
X171461248Y-56575358D02*
X172713208Y-56575358D01*
%TO.N,GND*%
X177388968Y-57577938D02*
G75*
G03*
X177034290Y-57170616I-413368J-1862D01*
G01*
X175309522Y-57797612D02*
X175936519Y-57170615D01*
X172209522Y-57797612D02*
X171750000Y-58257134D01*
X171750000Y-58257134D02*
X171750000Y-59034315D01*
X175936519Y-57170615D02*
X177034290Y-57170615D01*
%TO.N,/SDA*%
X182500000Y-64244971D02*
G75*
G03*
X185074671Y-61670329I0J2574671D01*
G01*
X185074657Y-55564323D02*
G75*
G03*
X181807891Y-52297543I-3266757J23D01*
G01*
%TO.N,/SCL*%
X172931938Y-54572923D02*
X173235926Y-54876911D01*
X181801636Y-52839173D02*
X174926814Y-52839173D01*
X173235926Y-54876911D02*
X173273282Y-54876911D01*
%TO.N,/SDA*%
X170430266Y-54534595D02*
X170430266Y-54376989D01*
%TO.N,/SCL*%
X172974010Y-54530851D02*
X172931938Y-54572923D01*
X172974010Y-54409989D02*
X172974010Y-54530851D01*
X174250000Y-56153601D02*
X174250000Y-59837500D01*
%TO.N,/SDA*%
X170391938Y-54572923D02*
X170430266Y-54534595D01*
%TO.N,/SCL*%
X184552600Y-59652435D02*
G75*
G02*
X182500000Y-61705000I-2052600J35D01*
G01*
X184552565Y-59652435D02*
X184552565Y-55590102D01*
X172974060Y-54410000D02*
G75*
G02*
X174926814Y-52839173I1955040J-431200D01*
G01*
%TO.N,VCC*%
X178011938Y-54572923D02*
X178275815Y-54836800D01*
%TO.N,/SCL*%
X181801636Y-52839135D02*
G75*
G02*
X184552565Y-55590102I-36J-2750965D01*
G01*
%TO.N,GND*%
X181502999Y-53359880D02*
X176946107Y-53359880D01*
X181502999Y-53359876D02*
G75*
G02*
X184027324Y-55884205I1J-2524324D01*
G01*
%TO.N,/SDA*%
X172928444Y-52297617D02*
G75*
G03*
X170430266Y-54376989I1856J-2542583D01*
G01*
%TO.N,GND*%
X184027300Y-57637676D02*
G75*
G02*
X182500000Y-59165000I-1527300J-24D01*
G01*
%TO.N,VCC*%
X178275815Y-54836800D02*
X180837689Y-54836800D01*
X182500009Y-56625000D02*
G75*
G03*
X180837689Y-54836801I-1795009J-1900D01*
G01*
%TO.N,GND*%
X175509381Y-54489868D02*
G75*
G02*
X176946107Y-53359880I1438819J-351032D01*
G01*
X184027324Y-57637676D02*
X184027324Y-55884205D01*
%TO.N,/SCL*%
X174249992Y-56153601D02*
G75*
G03*
X173273282Y-54876912I-1325892J-2399D01*
G01*
%TO.N,GND*%
X175509403Y-54535458D02*
X175471938Y-54572923D01*
%TO.N,/SDA*%
X185074671Y-55564323D02*
X185074671Y-61670329D01*
%TO.N,GND*%
X175509403Y-54489873D02*
X175509403Y-54535458D01*
%TO.N,/SDA*%
X172928444Y-52297543D02*
X181807891Y-52297543D01*
%TO.N,GND*%
X182076052Y-59165010D02*
G75*
G02*
X180488990Y-57577938I48J1587110D01*
G01*
X182076052Y-59165000D02*
X182500000Y-59165000D01*
%TO.N,VCC*%
X178670086Y-59056600D02*
G75*
G03*
X178162500Y-59564229I14J-507600D01*
G01*
X179180243Y-58546539D02*
G75*
G02*
X178670086Y-59056643I-510143J39D01*
G01*
X179854256Y-56087090D02*
G75*
G03*
X179180190Y-56761176I44J-674110D01*
G01*
X178162500Y-61250000D02*
X178162500Y-59564229D01*
X182499990Y-56625000D02*
G75*
G03*
X181962110Y-56087110I-537890J0D01*
G01*
X179180190Y-58546539D02*
X179180190Y-56761176D01*
X179854256Y-56087110D02*
X181962110Y-56087110D01*
%TO.N,GND*%
X172876307Y-74415373D02*
G75*
G02*
X170388027Y-71927128I-7J2488273D01*
G01*
X172876307Y-74415408D02*
X173113548Y-74415408D01*
X161262497Y-74764516D02*
G75*
G02*
X159231384Y-72733371I3J2031116D01*
G01*
X167288084Y-71927128D02*
G75*
G02*
X164450671Y-74764484I-2837384J28D01*
G01*
X161262497Y-74764484D02*
X164450671Y-74764484D01*
%TO.N,/BOOT1*%
X173746661Y-69969000D02*
G75*
G03*
X174750000Y-68965685I39J1003300D01*
G01*
X169348124Y-70868133D02*
G75*
G02*
X170247240Y-69969024I899076J33D01*
G01*
X170886929Y-76080413D02*
X173988543Y-76080413D01*
X170886929Y-76080369D02*
G75*
G02*
X169348131Y-74541615I-29J1538769D01*
G01*
X175653513Y-74415408D02*
G75*
G02*
X173988543Y-76080413I-1665013J8D01*
G01*
X174750000Y-68162500D02*
X174750000Y-68965685D01*
X173746661Y-69969024D02*
X170247240Y-69969024D01*
X169348131Y-70868133D02*
X169348131Y-74541615D01*
%TO.N,VCC*%
X175457554Y-77151348D02*
G75*
G03*
X178193548Y-74415408I46J2735948D01*
G01*
X167031130Y-69832073D02*
G75*
G02*
X168263027Y-71063955I-30J-1231927D01*
G01*
X168263027Y-75450359D02*
X168263027Y-71063955D01*
X168263098Y-75450359D02*
G75*
G03*
X169964070Y-77151402I1701002J-41D01*
G01*
X165799742Y-68688352D02*
G75*
G03*
X166943356Y-69832058I1143658J-48D01*
G01*
X164362924Y-59881297D02*
X164245363Y-59881297D01*
X164362924Y-59881309D02*
G75*
G02*
X165801591Y-61319964I-24J-1438691D01*
G01*
X175457554Y-77151402D02*
X169964070Y-77151402D01*
X167031130Y-69832058D02*
X166943356Y-69832058D01*
X165799650Y-68688352D02*
X165799650Y-61321905D01*
X165799650Y-61321905D02*
X165801591Y-61319964D01*
X163583371Y-71481387D02*
G75*
G02*
X162331384Y-72733371I-1251971J-13D01*
G01*
X163583368Y-71481387D02*
X163583368Y-69078784D01*
X163583372Y-69078784D02*
G75*
G02*
X162377280Y-70284872I-1206072J-16D01*
G01*
X163583368Y-69078784D02*
X163583368Y-66584389D01*
X163583397Y-60543292D02*
G75*
G02*
X164245363Y-59881297I662003J-8D01*
G01*
X163583368Y-60543292D02*
X163583368Y-66584389D01*
X162396968Y-67770768D02*
G75*
G03*
X163583368Y-66584389I32J1186368D01*
G01*
X162377289Y-67790477D02*
G75*
G02*
X162396968Y-67770789I19711J-23D01*
G01*
X162377280Y-67790477D02*
X162377280Y-70284872D01*
X162377271Y-72687475D02*
G75*
G02*
X162331384Y-72733371I-45871J-25D01*
G01*
X162377280Y-72687475D02*
X162377280Y-70284872D01*
%TO.N,GND*%
X159277280Y-70284872D02*
X159277280Y-72687475D01*
X159231384Y-72733380D02*
G75*
G03*
X159277280Y-72687475I16J45880D01*
G01*
X159296968Y-67770789D02*
X159296968Y-70265184D01*
X159277280Y-70284868D02*
G75*
G03*
X159296968Y-70265184I20J19668D01*
G01*
X159316504Y-65273269D02*
X159316504Y-67751253D01*
X159296968Y-67770804D02*
G75*
G03*
X159316504Y-67751253I32J19504D01*
G01*
%TO.N,/INT*%
X181009923Y-72914923D02*
X181009923Y-69579668D01*
X181009900Y-72914923D02*
G75*
G03*
X182500000Y-74405000I1490100J23D01*
G01*
X178180255Y-66750077D02*
G75*
G02*
X181009923Y-69579668I45J-2829623D01*
G01*
X178180255Y-66750000D02*
X178162500Y-66750000D01*
%TO.N,/USB_5v*%
X162986169Y-64703562D02*
G75*
G02*
X162416504Y-65273269I-569669J-38D01*
G01*
X162330363Y-59981789D02*
G75*
G02*
X162986211Y-60637604I37J-655811D01*
G01*
X161963144Y-59614481D02*
G75*
G03*
X162330363Y-59981756I367256J-19D01*
G01*
X162618936Y-57541988D02*
G75*
G03*
X161963088Y-58197850I-36J-655812D01*
G01*
X162618936Y-57542002D02*
X166584658Y-57542002D01*
X166785402Y-57341297D02*
G75*
G02*
X166584658Y-57542002I-200702J-3D01*
G01*
X162986211Y-64703562D02*
X162986211Y-60637604D01*
X161963088Y-59614481D02*
X161963088Y-58197850D01*
%TO.N,GND*%
X169790711Y-58641563D02*
G75*
G03*
X169325363Y-59106892I-11J-465337D01*
G01*
X169325363Y-59881297D02*
X169325363Y-59106892D01*
X169790711Y-58641544D02*
X171357229Y-58641544D01*
X171749956Y-59034315D02*
G75*
G03*
X171357229Y-58641544I-392756J15D01*
G01*
X171750000Y-59034315D02*
X171750000Y-59837500D01*
%TO.N,Net-(U1-Pad7)*%
X156792766Y-62146223D02*
X156792766Y-55646223D01*
%TO.N,GND*%
X161292766Y-62146223D02*
X161292766Y-55646223D01*
X165161453Y-56546489D02*
G75*
G03*
X167320789Y-54387203I47J2159289D01*
G01*
X161292761Y-55646223D02*
G75*
G03*
X162193082Y-56546539I900339J23D01*
G01*
X165161453Y-56546539D02*
X162193082Y-56546539D01*
%TO.N,Net-(U1-Pad7)*%
X158438989Y-53999966D02*
G75*
G03*
X156792766Y-55646223I11J-1646234D01*
G01*
X158438989Y-54000000D02*
X164000000Y-54000000D01*
%TO.N,GND*%
X159316523Y-64122485D02*
G75*
G02*
X161292766Y-62146223I1976277J-15D01*
G01*
X159316504Y-64122485D02*
X159316504Y-65273269D01*
%TO.N,VCC*%
X167054910Y-62793152D02*
X167174656Y-62673398D01*
X167474700Y-62549104D02*
G75*
G03*
X167174656Y-62673398I0J-424296D01*
G01*
X167919399Y-62364916D02*
X169034315Y-61250000D01*
X167919396Y-62364913D02*
G75*
G02*
X167474700Y-62549107I-444696J444713D01*
G01*
X166891400Y-64865949D02*
G75*
G03*
X167275486Y-65250000I384100J49D01*
G01*
X167054897Y-62793139D02*
G75*
G03*
X166891435Y-63187815I394703J-394661D01*
G01*
X169837500Y-65250000D02*
X167275486Y-65250000D01*
X166891435Y-64865949D02*
X166891435Y-63187815D01*
X169034315Y-61250000D02*
X169837500Y-61250000D01*
%TO.N,Net-(U1-Pad7)*%
X168604879Y-64000000D02*
X168854551Y-64249672D01*
X168861054Y-64249990D02*
G75*
G03*
X168854551Y-64249673I-3854J-12210D01*
G01*
X167918417Y-64000000D02*
X168604879Y-64000000D01*
X168861051Y-64250000D02*
X169837500Y-64250000D01*
%TO.N,GND*%
X179971700Y-60866024D02*
G75*
G02*
X179087672Y-61750000I-884000J24D01*
G01*
X178162500Y-61750000D02*
X179087672Y-61750000D01*
X181672672Y-59164948D02*
G75*
G03*
X179971648Y-60866024I28J-1701052D01*
G01*
X181672672Y-59165000D02*
X182500000Y-59165000D01*
%TO.N,/BOOT1*%
X175653548Y-74415408D02*
X175439112Y-74415397D01*
%TO.N,GND*%
X176250000Y-68162500D02*
X176250000Y-68748926D01*
X174370515Y-70628400D02*
G75*
G03*
X176250000Y-68748926I-15J1879500D01*
G01*
X173113548Y-71875408D02*
X173113548Y-71493617D01*
X173978754Y-70628348D02*
G75*
G03*
X173113548Y-71493617I46J-865252D01*
G01*
X173978754Y-70628411D02*
X174370515Y-70628411D01*
X173113548Y-71875408D02*
X173113548Y-74415408D01*
%TO.N,VCC*%
X178193548Y-71875408D02*
X178193548Y-74415408D01*
X176750000Y-68162500D02*
X176750000Y-69457265D01*
X177273741Y-69981000D02*
G75*
G02*
X176750000Y-69457265I-41J523700D01*
G01*
X178193494Y-70900813D02*
G75*
G03*
X177273741Y-69981006I-919794J13D01*
G01*
X178193548Y-70900813D02*
X178193548Y-71875408D01*
%TO.N,GND*%
X176250000Y-68162500D02*
X176250000Y-67359315D01*
X173640685Y-64750000D02*
G75*
G02*
X176250000Y-67359315I15J-2609300D01*
G01*
X173640685Y-64750000D02*
X169837500Y-64750000D01*
%TO.N,VCC*%
X178162500Y-61250000D02*
X177359315Y-61250000D01*
X176750000Y-61859315D02*
G75*
G02*
X177359315Y-61250000I609300J15D01*
G01*
X176750000Y-61859315D02*
X176750000Y-68162500D01*
%TO.N,GND*%
X169837500Y-64750000D02*
X170640685Y-64750000D01*
X171750000Y-63640685D02*
G75*
G02*
X170640685Y-64750000I-1109300J-15D01*
G01*
X171750000Y-63640685D02*
X171750000Y-59837500D01*
%TO.N,VCC*%
X171250000Y-59837500D02*
X171250000Y-60640685D01*
X170640685Y-61250000D02*
G75*
G03*
X171250000Y-60640685I15J609300D01*
G01*
X170640685Y-61250000D02*
X169837500Y-61250000D01*
%TO.N,/SCL*%
X182205000Y-62000000D02*
G75*
G03*
X182500000Y-61705000I0J295000D01*
G01*
%TO.N,GND*%
X182500000Y-59165000D02*
G75*
G03*
X182335000Y-59000000I-165000J0D01*
G01*
%TD*%
M02*
