%TF.GenerationSoftware,KiCad,Pcbnew,(6.0.4)*%
%TF.CreationDate,2022-08-11T21:30:40-04:00*%
%TF.ProjectId,flyback_2,666c7962-6163-46b5-9f32-2e6b69636164,rev?*%
%TF.SameCoordinates,Original*%
%TF.FileFunction,Soldermask,Top*%
%TF.FilePolarity,Negative*%
%FSLAX46Y46*%
G04 Gerber Fmt 4.6, Leading zero omitted, Abs format (unit mm)*
G04 Created by KiCad (PCBNEW (6.0.4)) date 2022-08-11 21:30:40*
%MOMM*%
%LPD*%
G01*
G04 APERTURE LIST*
G04 Aperture macros list*
%AMRoundRect*
0 Rectangle with rounded corners*
0 $1 Rounding radius*
0 $2 $3 $4 $5 $6 $7 $8 $9 X,Y pos of 4 corners*
0 Add a 4 corners polygon primitive as box body*
4,1,4,$2,$3,$4,$5,$6,$7,$8,$9,$2,$3,0*
0 Add four circle primitives for the rounded corners*
1,1,$1+$1,$2,$3*
1,1,$1+$1,$4,$5*
1,1,$1+$1,$6,$7*
1,1,$1+$1,$8,$9*
0 Add four rect primitives between the rounded corners*
20,1,$1+$1,$2,$3,$4,$5,0*
20,1,$1+$1,$4,$5,$6,$7,0*
20,1,$1+$1,$6,$7,$8,$9,0*
20,1,$1+$1,$8,$9,$2,$3,0*%
G04 Aperture macros list end*
%TA.AperFunction,Profile*%
%ADD10C,0.100000*%
%TD*%
%ADD11RoundRect,0.150000X-0.825000X-0.150000X0.825000X-0.150000X0.825000X0.150000X-0.825000X0.150000X0*%
%ADD12RoundRect,0.250000X-0.625000X0.312500X-0.625000X-0.312500X0.625000X-0.312500X0.625000X0.312500X0*%
%ADD13RoundRect,0.150000X-0.587500X-0.150000X0.587500X-0.150000X0.587500X0.150000X-0.587500X0.150000X0*%
%ADD14RoundRect,0.250000X0.625000X-0.312500X0.625000X0.312500X-0.625000X0.312500X-0.625000X-0.312500X0*%
%ADD15RoundRect,0.250000X-0.312500X-0.625000X0.312500X-0.625000X0.312500X0.625000X-0.312500X0.625000X0*%
%ADD16RoundRect,0.150000X-0.150000X0.587500X-0.150000X-0.587500X0.150000X-0.587500X0.150000X0.587500X0*%
%ADD17RoundRect,0.250000X0.312500X0.625000X-0.312500X0.625000X-0.312500X-0.625000X0.312500X-0.625000X0*%
%ADD18RoundRect,0.250000X-0.650000X0.325000X-0.650000X-0.325000X0.650000X-0.325000X0.650000X0.325000X0*%
%ADD19R,2.500000X1.800000*%
%ADD20C,1.524000*%
%ADD21R,2.000000X1.905000*%
%ADD22O,2.000000X1.905000*%
%ADD23R,2.400000X2.400000*%
%ADD24C,2.400000*%
G04 APERTURE END LIST*
D10*
X78429223Y-85105082D02*
X144429223Y-85105082D01*
X144429223Y-85105082D02*
X144429223Y-120105082D01*
X144429223Y-120105082D02*
X78429223Y-120105082D01*
X78429223Y-120105082D02*
X78429223Y-85105082D01*
D11*
%TO.C,U1*%
X93525000Y-88595000D03*
X93525000Y-89865000D03*
X93525000Y-91135000D03*
X93525000Y-92405000D03*
X98475000Y-92405000D03*
X98475000Y-91135000D03*
X98475000Y-89865000D03*
X98475000Y-88595000D03*
%TD*%
D12*
%TO.C,R2*%
X102000000Y-92537500D03*
X102000000Y-95462500D03*
%TD*%
D13*
%TO.C,Q2*%
X105062500Y-98550000D03*
X105062500Y-100450000D03*
X106937500Y-99500000D03*
%TD*%
D12*
%TO.C,R1*%
X102000000Y-88037500D03*
X102000000Y-90962500D03*
%TD*%
D14*
%TO.C,R4*%
X102000000Y-100462500D03*
X102000000Y-97537500D03*
%TD*%
D15*
%TO.C,R7*%
X109537500Y-105000000D03*
X112462500Y-105000000D03*
%TD*%
D14*
%TO.C,J1*%
X104500000Y-106462500D03*
X104500000Y-103537500D03*
%TD*%
%TO.C,J1*%
X109000000Y-93962500D03*
X109000000Y-91037500D03*
%TD*%
D16*
%TO.C,Q1*%
X97435877Y-97538690D03*
X95535877Y-97538690D03*
X96485877Y-99413690D03*
%TD*%
D17*
%TO.C,R6*%
X95462500Y-104500000D03*
X92537500Y-104500000D03*
%TD*%
D14*
%TO.C,J1*%
X89329059Y-109943208D03*
X89329059Y-107018208D03*
%TD*%
D18*
%TO.C,C1*%
X92500000Y-94525000D03*
X92500000Y-97475000D03*
%TD*%
D14*
%TO.C,J1*%
X91949446Y-109462500D03*
X91949446Y-106537500D03*
%TD*%
D11*
%TO.C,U2*%
X85025000Y-100095000D03*
X85025000Y-101365000D03*
X85025000Y-102635000D03*
X85025000Y-103905000D03*
X89975000Y-103905000D03*
X89975000Y-102635000D03*
X89975000Y-101365000D03*
X89975000Y-100095000D03*
%TD*%
D19*
%TO.C,D2*%
X110000000Y-100000000D03*
X114000000Y-100000000D03*
%TD*%
D14*
%TO.C,R8*%
X106000000Y-95462500D03*
X106000000Y-92537500D03*
%TD*%
D19*
%TO.C,D1*%
X118011721Y-108883516D03*
X122011721Y-108883516D03*
%TD*%
D14*
%TO.C,J1*%
X106985501Y-105167765D03*
X106985501Y-102242765D03*
%TD*%
D15*
%TO.C,R3*%
X94829945Y-94804654D03*
X97754945Y-94804654D03*
%TD*%
D14*
%TO.C,R5*%
X82000000Y-103462500D03*
X82000000Y-100537500D03*
%TD*%
D20*
%TO.C,RV1*%
X82121244Y-105908241D03*
X86621244Y-105908241D03*
X84371244Y-110908241D03*
%TD*%
%TO.C,J2*%
X90961675Y-116216895D03*
X87461675Y-116216895D03*
%TD*%
D21*
%TO.C,Q3*%
X114314468Y-89719597D03*
D22*
X114314468Y-92259597D03*
X114314468Y-94799597D03*
%TD*%
D20*
%TO.C,T1*%
X117500000Y-89000000D03*
X141500000Y-89000000D03*
X117500000Y-113000000D03*
X141500000Y-113000000D03*
%TD*%
%TO.C,J1*%
X87080000Y-90750000D03*
X87080000Y-94250000D03*
%TD*%
D23*
%TO.C,C2*%
X100290109Y-108824725D03*
D24*
X95290109Y-108824725D03*
%TD*%
D23*
%TO.C,C3*%
X113370387Y-108835714D03*
D24*
X108370387Y-108835714D03*
%TD*%
M02*
