%TF.GenerationSoftware,KiCad,Pcbnew,(6.0.4)*%
%TF.CreationDate,2022-08-11T19:05:10-04:00*%
%TF.ProjectId,flyback_2,666c7962-6163-46b5-9f32-2e6b69636164,rev?*%
%TF.SameCoordinates,Original*%
%TF.FileFunction,Copper,L1,Top*%
%TF.FilePolarity,Positive*%
%FSLAX46Y46*%
G04 Gerber Fmt 4.6, Leading zero omitted, Abs format (unit mm)*
G04 Created by KiCad (PCBNEW (6.0.4)) date 2022-08-11 19:05:10*
%MOMM*%
%LPD*%
G01*
G04 APERTURE LIST*
G04 Aperture macros list*
%AMRoundRect*
0 Rectangle with rounded corners*
0 $1 Rounding radius*
0 $2 $3 $4 $5 $6 $7 $8 $9 X,Y pos of 4 corners*
0 Add a 4 corners polygon primitive as box body*
4,1,4,$2,$3,$4,$5,$6,$7,$8,$9,$2,$3,0*
0 Add four circle primitives for the rounded corners*
1,1,$1+$1,$2,$3*
1,1,$1+$1,$4,$5*
1,1,$1+$1,$6,$7*
1,1,$1+$1,$8,$9*
0 Add four rect primitives between the rounded corners*
20,1,$1+$1,$2,$3,$4,$5,0*
20,1,$1+$1,$4,$5,$6,$7,0*
20,1,$1+$1,$6,$7,$8,$9,0*
20,1,$1+$1,$8,$9,$2,$3,0*%
G04 Aperture macros list end*
%TA.AperFunction,SMDPad,CuDef*%
%ADD10RoundRect,0.150000X-0.825000X-0.150000X0.825000X-0.150000X0.825000X0.150000X-0.825000X0.150000X0*%
%TD*%
%TA.AperFunction,SMDPad,CuDef*%
%ADD11RoundRect,0.250000X-0.625000X0.312500X-0.625000X-0.312500X0.625000X-0.312500X0.625000X0.312500X0*%
%TD*%
%TA.AperFunction,SMDPad,CuDef*%
%ADD12RoundRect,0.150000X-0.587500X-0.150000X0.587500X-0.150000X0.587500X0.150000X-0.587500X0.150000X0*%
%TD*%
%TA.AperFunction,SMDPad,CuDef*%
%ADD13RoundRect,0.250000X0.625000X-0.312500X0.625000X0.312500X-0.625000X0.312500X-0.625000X-0.312500X0*%
%TD*%
%TA.AperFunction,SMDPad,CuDef*%
%ADD14RoundRect,0.250000X-0.312500X-0.625000X0.312500X-0.625000X0.312500X0.625000X-0.312500X0.625000X0*%
%TD*%
%TA.AperFunction,SMDPad,CuDef*%
%ADD15RoundRect,0.150000X-0.150000X0.587500X-0.150000X-0.587500X0.150000X-0.587500X0.150000X0.587500X0*%
%TD*%
%TA.AperFunction,SMDPad,CuDef*%
%ADD16RoundRect,0.250000X0.312500X0.625000X-0.312500X0.625000X-0.312500X-0.625000X0.312500X-0.625000X0*%
%TD*%
%TA.AperFunction,SMDPad,CuDef*%
%ADD17RoundRect,0.250000X-0.650000X0.325000X-0.650000X-0.325000X0.650000X-0.325000X0.650000X0.325000X0*%
%TD*%
%TA.AperFunction,SMDPad,CuDef*%
%ADD18R,2.500000X1.800000*%
%TD*%
%TA.AperFunction,ComponentPad*%
%ADD19C,1.524000*%
%TD*%
%TA.AperFunction,ComponentPad*%
%ADD20R,2.000000X1.905000*%
%TD*%
%TA.AperFunction,ComponentPad*%
%ADD21O,2.000000X1.905000*%
%TD*%
%TA.AperFunction,ComponentPad*%
%ADD22R,2.400000X2.400000*%
%TD*%
%TA.AperFunction,ComponentPad*%
%ADD23C,2.400000*%
%TD*%
%TA.AperFunction,Conductor*%
%ADD24C,0.350000*%
%TD*%
%TA.AperFunction,Conductor*%
%ADD25C,1.500000*%
%TD*%
G04 APERTURE END LIST*
D10*
%TO.P,U1,1,GND*%
%TO.N,GND*%
X93525000Y-88595000D03*
%TO.P,U1,2,TR*%
%TO.N,Net-(C1-Pad1)*%
X93525000Y-89865000D03*
%TO.P,U1,3,Q*%
%TO.N,Net-(R3-Pad1)*%
X93525000Y-91135000D03*
%TO.P,U1,4,R*%
%TO.N,unconnected-(U1-Pad4)*%
X93525000Y-92405000D03*
%TO.P,U1,5,CV*%
%TO.N,unconnected-(U1-Pad5)*%
X98475000Y-92405000D03*
%TO.P,U1,6,THR*%
%TO.N,Net-(C1-Pad1)*%
X98475000Y-91135000D03*
%TO.P,U1,7,DIS*%
%TO.N,Net-(R1-Pad2)*%
X98475000Y-89865000D03*
%TO.P,U1,8,VCC*%
%TO.N,VCC*%
X98475000Y-88595000D03*
%TD*%
D11*
%TO.P,R2,1*%
%TO.N,Net-(R1-Pad2)*%
X102000000Y-92537500D03*
%TO.P,R2,2*%
%TO.N,Net-(C1-Pad1)*%
X102000000Y-95462500D03*
%TD*%
D12*
%TO.P,Q2,1,B*%
%TO.N,Net-(R8-Pad1)*%
X105062500Y-98550000D03*
%TO.P,Q2,2,E*%
%TO.N,GND*%
X105062500Y-100450000D03*
%TO.P,Q2,3,C*%
%TO.N,Net-(Q1-Pad3)*%
X106937500Y-99500000D03*
%TD*%
D11*
%TO.P,R1,1*%
%TO.N,VCC*%
X102000000Y-88037500D03*
%TO.P,R1,2*%
%TO.N,Net-(R1-Pad2)*%
X102000000Y-90962500D03*
%TD*%
D13*
%TO.P,R4,1*%
%TO.N,Net-(Q1-Pad3)*%
X102000000Y-100462500D03*
%TO.P,R4,2*%
%TO.N,VCC*%
X102000000Y-97537500D03*
%TD*%
D14*
%TO.P,R7,1*%
%TO.N,Net-(R7-Pad1)*%
X109537500Y-105000000D03*
%TO.P,R7,2*%
%TO.N,VCC*%
X112462500Y-105000000D03*
%TD*%
D13*
%TO.P,J1,1*%
%TO.N,V_FEEDBACK*%
X104500000Y-106462500D03*
%TO.P,J1,2*%
X104500000Y-103537500D03*
%TD*%
%TO.P,J1,1*%
%TO.N,Net-(Q1-Pad3)*%
X109000000Y-93962500D03*
%TO.P,J1,2*%
X109000000Y-91037500D03*
%TD*%
D15*
%TO.P,Q1,1,B*%
%TO.N,Net-(R3-Pad2)*%
X97435877Y-97538690D03*
%TO.P,Q1,2,E*%
%TO.N,GND*%
X95535877Y-97538690D03*
%TO.P,Q1,3,C*%
%TO.N,Net-(Q1-Pad3)*%
X96485877Y-99413690D03*
%TD*%
D16*
%TO.P,R6,1*%
%TO.N,GND*%
X95462500Y-104500000D03*
%TO.P,R6,2*%
%TO.N,Net-(R5-Pad2)*%
X92537500Y-104500000D03*
%TD*%
D13*
%TO.P,J1,1*%
%TO.N,Net-(R5-Pad2)*%
X89329059Y-109943208D03*
%TO.P,J1,2*%
X89329059Y-107018208D03*
%TD*%
D17*
%TO.P,C1,1*%
%TO.N,Net-(C1-Pad1)*%
X92500000Y-94525000D03*
%TO.P,C1,2*%
%TO.N,GND*%
X92500000Y-97475000D03*
%TD*%
D13*
%TO.P,J1,1*%
%TO.N,Net-(RV1-Pad2)*%
X91949446Y-109462500D03*
%TO.P,J1,2*%
X91949446Y-106537500D03*
%TD*%
D10*
%TO.P,U2,1*%
%TO.N,Net-(U2-Pad1)*%
X85025000Y-100095000D03*
%TO.P,U2,2,-*%
%TO.N,V_FEEDBACK*%
X85025000Y-101365000D03*
%TO.P,U2,3,+*%
%TO.N,Net-(RV1-Pad2)*%
X85025000Y-102635000D03*
%TO.P,U2,4,V-*%
%TO.N,GND*%
X85025000Y-103905000D03*
%TO.P,U2,5,+*%
%TO.N,Net-(R7-Pad1)*%
X89975000Y-103905000D03*
%TO.P,U2,6,-*%
%TO.N,Net-(R5-Pad2)*%
X89975000Y-102635000D03*
%TO.P,U2,7*%
%TO.N,Net-(RV1-Pad2)*%
X89975000Y-101365000D03*
%TO.P,U2,8,V+*%
%TO.N,VCC*%
X89975000Y-100095000D03*
%TD*%
D18*
%TO.P,D2,1,K*%
%TO.N,GND*%
X110000000Y-100000000D03*
%TO.P,D2,2,A*%
%TO.N,Net-(R7-Pad1)*%
X114000000Y-100000000D03*
%TD*%
D13*
%TO.P,R8,1*%
%TO.N,Net-(R8-Pad1)*%
X106000000Y-95462500D03*
%TO.P,R8,2*%
%TO.N,Net-(U2-Pad1)*%
X106000000Y-92537500D03*
%TD*%
D18*
%TO.P,D1,1,K*%
%TO.N,V_FEEDBACK*%
X118011721Y-108883516D03*
%TO.P,D1,2,A*%
%TO.N,Net-(T1-Pad4)*%
X122011721Y-108883516D03*
%TD*%
D13*
%TO.P,J1,1*%
%TO.N,Net-(R7-Pad1)*%
X106985501Y-105167765D03*
%TO.P,J1,2*%
X106985501Y-102242765D03*
%TD*%
D14*
%TO.P,R3,1*%
%TO.N,Net-(R3-Pad1)*%
X94829945Y-94804654D03*
%TO.P,R3,2*%
%TO.N,Net-(R3-Pad2)*%
X97754945Y-94804654D03*
%TD*%
D13*
%TO.P,R5,1*%
%TO.N,Net-(R5-Pad1)*%
X82000000Y-103462500D03*
%TO.P,R5,2*%
%TO.N,Net-(R5-Pad2)*%
X82000000Y-100537500D03*
%TD*%
D19*
%TO.P,RV1,1,1*%
%TO.N,Net-(R5-Pad1)*%
X82121244Y-105908241D03*
%TO.P,RV1,2,2*%
%TO.N,N/C*%
X86621244Y-105908241D03*
%TO.P,RV1,3,3*%
%TO.N,Net-(RV1-Pad2)*%
X84371244Y-110908241D03*
%TD*%
%TO.P,J2,1,Pin_1*%
%TO.N,V_FEEDBACK*%
X90961675Y-116216895D03*
%TO.P,J2,2,Pin_2*%
%TO.N,GND*%
X87461675Y-116216895D03*
%TD*%
D20*
%TO.P,Q3,1,G*%
%TO.N,Net-(Q1-Pad3)*%
X114314468Y-89719597D03*
D21*
%TO.P,Q3,2,D*%
%TO.N,Net-(T1-Pad2)*%
X114314468Y-92259597D03*
%TO.P,Q3,3,S*%
%TO.N,GND*%
X114314468Y-94799597D03*
%TD*%
D19*
%TO.P,T1,1,AA*%
%TO.N,VCC*%
X117500000Y-89000000D03*
%TO.P,T1,2,AB*%
%TO.N,Net-(T1-Pad2)*%
X141500000Y-89000000D03*
%TO.P,T1,3,SA*%
%TO.N,GND*%
X117500000Y-113000000D03*
%TO.P,T1,4,SB*%
%TO.N,Net-(T1-Pad4)*%
X141500000Y-113000000D03*
%TD*%
%TO.P,J1,1,Pin_1*%
%TO.N,VCC*%
X87080000Y-90750000D03*
%TO.P,J1,2,Pin_2*%
%TO.N,GND*%
X87080000Y-94250000D03*
%TD*%
D22*
%TO.P,C2,1*%
%TO.N,Net-(C2-Pad1)*%
X100290109Y-108824725D03*
D23*
%TO.P,C2,2*%
%TO.N,GND*%
X95290109Y-108824725D03*
%TD*%
D22*
%TO.P,C3,1*%
%TO.N,V_FEEDBACK*%
X113370387Y-108835714D03*
D23*
%TO.P,C3,2*%
%TO.N,Net-(C2-Pad1)*%
X108370387Y-108835714D03*
%TD*%
D24*
%TO.N,Net-(C1-Pad1)*%
X92135000Y-89865000D02*
X93525000Y-89865000D01*
X92500000Y-94525000D02*
X91000000Y-93025000D01*
X93525000Y-89865000D02*
X95365000Y-89865000D01*
X91000000Y-93025000D02*
X91000000Y-91000000D01*
X100283734Y-91783734D02*
X99635000Y-91135000D01*
X100283734Y-93746234D02*
X100283734Y-91783734D01*
X91000000Y-91000000D02*
X92135000Y-89865000D01*
X99635000Y-91135000D02*
X98475000Y-91135000D01*
X96635000Y-91135000D02*
X98475000Y-91135000D01*
X102000000Y-95462500D02*
X100283734Y-93746234D01*
X95365000Y-89865000D02*
X96635000Y-91135000D01*
D25*
%TO.N,GND*%
X87461675Y-116420443D02*
X87461675Y-116216895D01*
X84042560Y-113000000D02*
X84042560Y-113022902D01*
X89000000Y-113000000D02*
X84042560Y-113000000D01*
X139500000Y-118000000D02*
X89041232Y-118000000D01*
D24*
X95535877Y-97538690D02*
X95472187Y-97475000D01*
D25*
X114534065Y-94580000D02*
X127830000Y-94580000D01*
X143211511Y-114288489D02*
X139500000Y-118000000D01*
D24*
X95462500Y-104500000D02*
X95462500Y-105814625D01*
X101116316Y-101399520D02*
X100728816Y-101012020D01*
D25*
X89041232Y-118000000D02*
X87461675Y-116420443D01*
D24*
X109550000Y-100450000D02*
X105062500Y-100450000D01*
X100728816Y-101012020D02*
X96604924Y-101012020D01*
X84578217Y-103905000D02*
X83675480Y-103002263D01*
D25*
X83750000Y-94250000D02*
X87080000Y-94250000D01*
X87236553Y-116216895D02*
X87461675Y-116216895D01*
D24*
X110000000Y-100000000D02*
X109550000Y-100450000D01*
D25*
X93232233Y-113000000D02*
X95290109Y-110942124D01*
D24*
X104112980Y-101399520D02*
X101116316Y-101399520D01*
D25*
X92000000Y-113000000D02*
X89000000Y-113000000D01*
X143211511Y-109961511D02*
X143211511Y-114288489D01*
D24*
X83675480Y-103002263D02*
X83675480Y-99727737D01*
X84000000Y-96500000D02*
X86250000Y-94250000D01*
X87080000Y-94250000D02*
X87250000Y-94250000D01*
D25*
X79625960Y-98374040D02*
X83750000Y-94250000D01*
D24*
X83675480Y-99727737D02*
X84000000Y-99403217D01*
X93525000Y-88595000D02*
X92491608Y-88595000D01*
X95535877Y-99942973D02*
X95535877Y-97538690D01*
D25*
X92000000Y-113000000D02*
X93232233Y-113000000D01*
X117500000Y-113000000D02*
X92000000Y-113000000D01*
D24*
X92491608Y-88595000D02*
X87080000Y-94006608D01*
D25*
X127830000Y-94580000D02*
X143211511Y-109961511D01*
D24*
X87080000Y-94006608D02*
X87080000Y-94250000D01*
D25*
X84042560Y-113000000D02*
X79625960Y-108583400D01*
D24*
X85025000Y-103905000D02*
X84578217Y-103905000D01*
X92751645Y-108525480D02*
X87230486Y-108525480D01*
D25*
X114314468Y-94799597D02*
X114534065Y-94580000D01*
D24*
X105062500Y-100450000D02*
X104112980Y-101399520D01*
X85025000Y-106319994D02*
X85025000Y-103905000D01*
X87230486Y-108525480D02*
X85025000Y-106319994D01*
X95462500Y-105814625D02*
X92751645Y-108525480D01*
X86250000Y-94250000D02*
X87080000Y-94250000D01*
X90475000Y-97475000D02*
X92500000Y-97475000D01*
X87250000Y-94250000D02*
X90475000Y-97475000D01*
D25*
X95290109Y-110942124D02*
X95290109Y-108824725D01*
X79625960Y-108583400D02*
X79625960Y-98374040D01*
X84042560Y-113022902D02*
X87236553Y-116216895D01*
D24*
X96604924Y-101012020D02*
X95535877Y-99942973D01*
X95472187Y-97475000D02*
X92500000Y-97475000D01*
X84000000Y-99403217D02*
X84000000Y-96500000D01*
D25*
%TO.N,Net-(C2-Pad1)*%
X100290109Y-108824725D02*
X108359398Y-108824725D01*
X108359398Y-108824725D02*
X108370387Y-108835714D01*
D24*
%TO.N,V_FEEDBACK*%
X88882783Y-99069230D02*
X91734827Y-99069230D01*
D25*
X119211511Y-110083306D02*
X118011721Y-108883516D01*
D24*
X86587013Y-101365000D02*
X88882783Y-99069230D01*
D25*
X117963919Y-108835714D02*
X118011721Y-108883516D01*
D24*
X85025000Y-101365000D02*
X86587013Y-101365000D01*
X102962500Y-103537500D02*
X104500000Y-103537500D01*
X94790842Y-102125245D02*
X96540181Y-102125245D01*
X113370387Y-108835714D02*
X110997173Y-106462500D01*
D25*
X119211511Y-113708932D02*
X119211511Y-110083306D01*
X113370387Y-108835714D02*
X117963919Y-108835714D01*
D24*
X96540181Y-102125245D02*
X98483661Y-104068725D01*
D25*
X90961675Y-116216895D02*
X116703548Y-116216895D01*
D24*
X110997173Y-106462500D02*
X104500000Y-106462500D01*
X91734827Y-99069230D02*
X94790842Y-102125245D01*
D25*
X116703548Y-116216895D02*
X119211511Y-113708932D01*
D24*
X98483661Y-104068725D02*
X102431275Y-104068725D01*
X102431275Y-104068725D02*
X102962500Y-103537500D01*
D25*
%TO.N,Net-(T1-Pad4)*%
X122011721Y-108883516D02*
X137383516Y-108883516D01*
X137383516Y-108883516D02*
X141500000Y-113000000D01*
D24*
%TO.N,Net-(R3-Pad2)*%
X97950000Y-94999709D02*
X97754945Y-94804654D01*
X97435877Y-97538690D02*
X97950000Y-97024567D01*
X97950000Y-97024567D02*
X97950000Y-94999709D01*
%TO.N,VCC*%
X94036303Y-102674765D02*
X96242783Y-102674765D01*
X105735981Y-104596581D02*
X106101817Y-104230745D01*
D25*
X117500000Y-89000000D02*
X115403174Y-86903174D01*
D24*
X108486051Y-104230745D02*
X108966316Y-103750480D01*
X104000000Y-95537500D02*
X104000000Y-89500000D01*
X96312563Y-102674765D02*
X98186263Y-104548465D01*
X87080000Y-90750000D02*
X88675000Y-90750000D01*
X102000000Y-97537500D02*
X104000000Y-95537500D01*
X96242783Y-102674765D02*
X98186263Y-104618245D01*
X98186263Y-104548465D02*
X98186263Y-104618245D01*
D25*
X87080000Y-89420000D02*
X87080000Y-90750000D01*
D24*
X109765119Y-91987981D02*
X112939948Y-95162810D01*
X104000000Y-89500000D02*
X102537500Y-88037500D01*
X101442500Y-88595000D02*
X98475000Y-88595000D01*
X102000000Y-88037500D02*
X101442500Y-88595000D01*
X105735981Y-104618245D02*
X105735981Y-104596581D01*
X111212980Y-103750480D02*
X112462500Y-105000000D01*
X89975000Y-100095000D02*
X91456538Y-100095000D01*
X88675000Y-90750000D02*
X91504520Y-87920480D01*
X98186263Y-104618245D02*
X105735981Y-104618245D01*
X91456538Y-100095000D02*
X94036303Y-102674765D01*
X112939948Y-95162810D02*
X112939948Y-96064680D01*
X103537500Y-88037500D02*
X107487980Y-91987980D01*
D25*
X115403174Y-86903174D02*
X89596826Y-86903174D01*
D24*
X102000000Y-88037500D02*
X103537500Y-88037500D01*
X108966316Y-103750480D02*
X111212980Y-103750480D01*
X115882838Y-99007570D02*
X115882838Y-101579662D01*
X91504520Y-87920480D02*
X97800480Y-87920480D01*
X102537500Y-88037500D02*
X102000000Y-88037500D01*
X112939948Y-96064680D02*
X115882838Y-99007570D01*
X107487980Y-91987980D02*
X109765119Y-91987981D01*
X98186263Y-104618245D02*
X96312563Y-102674765D01*
X97800480Y-87920480D02*
X98475000Y-88595000D01*
X106101817Y-104230745D02*
X108486051Y-104230745D01*
D25*
X89596826Y-86903174D02*
X87080000Y-89420000D01*
D24*
X115882838Y-101579662D02*
X112462500Y-105000000D01*
%TO.N,Net-(R1-Pad2)*%
X102000000Y-90962500D02*
X100902500Y-89865000D01*
X102000000Y-92537500D02*
X102000000Y-90962500D01*
X100902500Y-89865000D02*
X98475000Y-89865000D01*
%TO.N,Net-(R3-Pad1)*%
X95500000Y-92000000D02*
X95500000Y-94134599D01*
X93525000Y-91135000D02*
X94635000Y-91135000D01*
X95500000Y-94134599D02*
X94829945Y-94804654D01*
X94635000Y-91135000D02*
X95500000Y-92000000D01*
%TO.N,Net-(R5-Pad1)*%
X82000000Y-103462500D02*
X82000000Y-105786997D01*
X82000000Y-105786997D02*
X82121244Y-105908241D01*
%TO.N,Net-(R8-Pad1)*%
X105062500Y-96400000D02*
X106000000Y-95462500D01*
X105062500Y-98550000D02*
X105062500Y-96400000D01*
%TO.N,Net-(Q1-Pad3)*%
X109000000Y-93962500D02*
X109000000Y-97437500D01*
X102962500Y-99500000D02*
X102000000Y-100462500D01*
X109000000Y-97437500D02*
X106937500Y-99500000D01*
X97534687Y-100462500D02*
X96485877Y-99413690D01*
X102000000Y-100462500D02*
X97534687Y-100462500D01*
X106937500Y-99500000D02*
X102962500Y-99500000D01*
X110317903Y-89719597D02*
X109000000Y-91037500D01*
X114314468Y-89719597D02*
X110317903Y-89719597D01*
D25*
%TO.N,Net-(T1-Pad2)*%
X138460000Y-92040000D02*
X114534065Y-92040000D01*
X114534065Y-92040000D02*
X114314468Y-92259597D01*
X141500000Y-89000000D02*
X138460000Y-92040000D01*
D24*
%TO.N,Net-(R5-Pad2)*%
X88460851Y-109075000D02*
X89329059Y-109943208D01*
X91426251Y-104500000D02*
X92537500Y-104500000D01*
X90672500Y-102635000D02*
X89975000Y-102635000D01*
X80750480Y-101787020D02*
X80750480Y-106250480D01*
X82000000Y-100537500D02*
X80750480Y-101787020D01*
X83575000Y-109075000D02*
X88460851Y-109075000D01*
X89329059Y-106597192D02*
X91426251Y-104500000D01*
X80750480Y-106250480D02*
X83575000Y-109075000D01*
X89329059Y-107018208D02*
X89329059Y-106597192D01*
X92537500Y-104500000D02*
X90672500Y-102635000D01*
%TO.N,Net-(U2-Pad1)*%
X84549520Y-96727618D02*
X85802332Y-95474806D01*
X85025000Y-100095000D02*
X84549520Y-99619520D01*
X109537500Y-92537500D02*
X106000000Y-92537500D01*
X100888698Y-101949040D02*
X104340598Y-101949040D01*
X93715912Y-98424520D02*
X94950480Y-99659088D01*
X94950480Y-99659088D02*
X94950480Y-100134714D01*
X96377306Y-101561540D02*
X100501198Y-101561540D01*
X90647382Y-98424520D02*
X93715912Y-98424520D01*
X112105128Y-95105128D02*
X109537500Y-92537500D01*
X105015127Y-101274511D02*
X111624511Y-101274511D01*
X84549520Y-99619520D02*
X84549520Y-96727618D01*
X104340598Y-101949040D02*
X105015127Y-101274511D01*
X87697668Y-95474806D02*
X90647382Y-98424520D01*
X85802332Y-95474806D02*
X87697668Y-95474806D01*
X85025000Y-100095000D02*
X85405000Y-100095000D01*
X94950480Y-100134714D02*
X96377306Y-101561540D01*
X112105128Y-100793894D02*
X112105128Y-95105128D01*
X100501198Y-101561540D02*
X100888698Y-101949040D01*
X111624511Y-101274511D02*
X112105128Y-100793894D01*
%TO.N,Net-(RV1-Pad2)*%
X86865000Y-102635000D02*
X88135000Y-101365000D01*
X93600610Y-105899390D02*
X92962500Y-106537500D01*
X89975000Y-101365000D02*
X91365000Y-101365000D01*
X93600610Y-103600610D02*
X93600610Y-105899390D01*
X84371244Y-110908241D02*
X84776922Y-111313919D01*
X92962500Y-106537500D02*
X91949446Y-106537500D01*
X88135000Y-101365000D02*
X89975000Y-101365000D01*
X85025000Y-102635000D02*
X86865000Y-102635000D01*
X90098027Y-111313919D02*
X91949446Y-109462500D01*
X91365000Y-101365000D02*
X93600610Y-103600610D01*
X84776922Y-111313919D02*
X90098027Y-111313919D01*
%TO.N,Net-(R7-Pad1)*%
X94250000Y-106250000D02*
X94250000Y-103750000D01*
X97950969Y-105167765D02*
X106985501Y-105167765D01*
X92544772Y-107955228D02*
X94250000Y-106250000D01*
X112996021Y-102242765D02*
X114000000Y-101238786D01*
X89975000Y-103905000D02*
X87800135Y-106079865D01*
X94775715Y-103224285D02*
X96007489Y-103224285D01*
X106985501Y-102242765D02*
X112996021Y-102242765D01*
X87800135Y-106079865D02*
X87800135Y-107309988D01*
X109537500Y-105000000D02*
X107153266Y-105000000D01*
X107153266Y-105000000D02*
X106985501Y-105167765D01*
X88445375Y-107955228D02*
X92544772Y-107955228D01*
X87800135Y-107309988D02*
X88445375Y-107955228D01*
X94250000Y-103750000D02*
X94775715Y-103224285D01*
X96007489Y-103224285D02*
X97950969Y-105167765D01*
X114000000Y-101238786D02*
X114000000Y-100000000D01*
%TD*%
M02*
