%TF.GenerationSoftware,KiCad,Pcbnew,6.0.2+dfsg-1*%
%TF.CreationDate,2023-04-18T09:24:24-04:00*%
%TF.ProjectId,lamp-remote,6c616d70-2d72-4656-9d6f-74652e6b6963,rev?*%
%TF.SameCoordinates,Original*%
%TF.FileFunction,Copper,L1,Top*%
%TF.FilePolarity,Positive*%
%FSLAX46Y46*%
G04 Gerber Fmt 4.6, Leading zero omitted, Abs format (unit mm)*
G04 Created by KiCad (PCBNEW 6.0.2+dfsg-1) date 2023-04-18 09:24:24*
%MOMM*%
%LPD*%
G01*
G04 APERTURE LIST*
G04 Aperture macros list*
%AMRoundRect*
0 Rectangle with rounded corners*
0 $1 Rounding radius*
0 $2 $3 $4 $5 $6 $7 $8 $9 X,Y pos of 4 corners*
0 Add a 4 corners polygon primitive as box body*
4,1,4,$2,$3,$4,$5,$6,$7,$8,$9,$2,$3,0*
0 Add four circle primitives for the rounded corners*
1,1,$1+$1,$2,$3*
1,1,$1+$1,$4,$5*
1,1,$1+$1,$6,$7*
1,1,$1+$1,$8,$9*
0 Add four rect primitives between the rounded corners*
20,1,$1+$1,$2,$3,$4,$5,0*
20,1,$1+$1,$4,$5,$6,$7,0*
20,1,$1+$1,$6,$7,$8,$9,0*
20,1,$1+$1,$8,$9,$2,$3,0*%
G04 Aperture macros list end*
%TA.AperFunction,ComponentPad*%
%ADD10R,1.500000X1.500000*%
%TD*%
%TA.AperFunction,SMDPad,CuDef*%
%ADD11RoundRect,0.250000X0.625000X-0.400000X0.625000X0.400000X-0.625000X0.400000X-0.625000X-0.400000X0*%
%TD*%
%TA.AperFunction,SMDPad,CuDef*%
%ADD12RoundRect,0.250000X-0.400000X-0.625000X0.400000X-0.625000X0.400000X0.625000X-0.400000X0.625000X0*%
%TD*%
%TA.AperFunction,SMDPad,CuDef*%
%ADD13R,1.800000X3.500000*%
%TD*%
%TA.AperFunction,ComponentPad*%
%ADD14C,3.000000*%
%TD*%
%TA.AperFunction,ComponentPad*%
%ADD15R,3.000000X3.000000*%
%TD*%
%TA.AperFunction,SMDPad,CuDef*%
%ADD16RoundRect,0.250000X-0.625000X0.400000X-0.625000X-0.400000X0.625000X-0.400000X0.625000X0.400000X0*%
%TD*%
%TA.AperFunction,SMDPad,CuDef*%
%ADD17RoundRect,0.250000X0.400000X0.625000X-0.400000X0.625000X-0.400000X-0.625000X0.400000X-0.625000X0*%
%TD*%
%TA.AperFunction,ComponentPad*%
%ADD18R,2.400000X1.600000*%
%TD*%
%TA.AperFunction,ComponentPad*%
%ADD19O,2.400000X1.600000*%
%TD*%
%TA.AperFunction,ComponentPad*%
%ADD20R,1.800000X1.100000*%
%TD*%
%TA.AperFunction,ComponentPad*%
%ADD21RoundRect,0.275000X0.625000X-0.275000X0.625000X0.275000X-0.625000X0.275000X-0.625000X-0.275000X0*%
%TD*%
%TA.AperFunction,ComponentPad*%
%ADD22R,1.600000X1.600000*%
%TD*%
%TA.AperFunction,ComponentPad*%
%ADD23C,1.600000*%
%TD*%
%TA.AperFunction,ComponentPad*%
%ADD24R,1.100000X1.800000*%
%TD*%
%TA.AperFunction,ComponentPad*%
%ADD25RoundRect,0.275000X-0.275000X-0.625000X0.275000X-0.625000X0.275000X0.625000X-0.275000X0.625000X0*%
%TD*%
%TA.AperFunction,ComponentPad*%
%ADD26RoundRect,0.275000X-0.625000X0.275000X-0.625000X-0.275000X0.625000X-0.275000X0.625000X0.275000X0*%
%TD*%
%TA.AperFunction,Conductor*%
%ADD27C,0.500000*%
%TD*%
G04 APERTURE END LIST*
D10*
%TO.P,REF\u002A\u002A,1*%
%TO.N,Vin*%
X118500000Y-88500000D03*
%TD*%
D11*
%TO.P,R6,1*%
%TO.N,RELAY_COIL2*%
X130500000Y-81050000D03*
%TO.P,R6,2*%
%TO.N,Net-(R5-Pad2)*%
X130500000Y-77950000D03*
%TD*%
D12*
%TO.P,R2,1*%
%TO.N,Net-(C1-Pad1)*%
X126000000Y-84500000D03*
%TO.P,R2,2*%
%TO.N,SIG*%
X129100000Y-84500000D03*
%TD*%
%TO.P,R1,1*%
%TO.N,Vin*%
X118000000Y-84500000D03*
%TO.P,R1,2*%
%TO.N,Net-(C1-Pad1)*%
X121100000Y-84500000D03*
%TD*%
D13*
%TO.P,D1,1,K*%
%TO.N,RELAY_COIL1*%
X152000000Y-78000000D03*
%TO.P,D1,2,A*%
%TO.N,RELAY_COIL2*%
X152000000Y-73000000D03*
%TD*%
D11*
%TO.P,R4,1*%
%TO.N,RELAY_COIL2*%
X133500000Y-81050000D03*
%TO.P,R4,2*%
%TO.N,Net-(R3-Pad2)*%
X133500000Y-77950000D03*
%TD*%
D14*
%TO.P,REF\u002A\u002A,2*%
%TO.N,Vcc*%
X145080000Y-87000000D03*
D15*
%TO.P,REF\u002A\u002A,1*%
%TO.N,RELAY_COIL2*%
X140000000Y-87000000D03*
%TD*%
D12*
%TO.P,R7,1*%
%TO.N,COMP1*%
X139950000Y-75000000D03*
%TO.P,R7,2*%
%TO.N,Net-(Q1-Pad2)*%
X143050000Y-75000000D03*
%TD*%
D16*
%TO.P,R3,1*%
%TO.N,Vcc*%
X133500000Y-72450000D03*
%TO.P,R3,2*%
%TO.N,Net-(R3-Pad2)*%
X133500000Y-75550000D03*
%TD*%
D11*
%TO.P,R9,1*%
%TO.N,Net-(Q1-Pad3)*%
X137500000Y-75550000D03*
%TO.P,R9,2*%
%TO.N,Vcc*%
X137500000Y-72450000D03*
%TD*%
%TO.P,R10,1*%
%TO.N,VOUT*%
X149000000Y-79550000D03*
%TO.P,R10,2*%
%TO.N,Vcc*%
X149000000Y-76450000D03*
%TD*%
D17*
%TO.P,R8,1*%
%TO.N,COMP2*%
X148050000Y-82000000D03*
%TO.P,R8,2*%
%TO.N,Net-(Q2-Pad2)*%
X144950000Y-82000000D03*
%TD*%
D16*
%TO.P,R5,1*%
%TO.N,Vcc*%
X130500000Y-72450000D03*
%TO.P,R5,2*%
%TO.N,Net-(R5-Pad2)*%
X130500000Y-75550000D03*
%TD*%
D18*
%TO.P,U1,1*%
%TO.N,COMP1*%
X126500000Y-72500000D03*
D19*
%TO.P,U1,2,-*%
%TO.N,Net-(R3-Pad2)*%
X126500000Y-75040000D03*
%TO.P,U1,3,+*%
%TO.N,SIG*%
X126500000Y-77580000D03*
%TO.P,U1,4,V-*%
%TO.N,RELAY_COIL2*%
X126500000Y-80120000D03*
%TO.P,U1,5,+*%
%TO.N,SIG*%
X118880000Y-80120000D03*
%TO.P,U1,6,-*%
%TO.N,Net-(R5-Pad2)*%
X118880000Y-77580000D03*
%TO.P,U1,7*%
%TO.N,COMP2*%
X118880000Y-75040000D03*
%TO.P,U1,8,V+*%
%TO.N,Vcc*%
X118880000Y-72500000D03*
%TD*%
D20*
%TO.P,Q1,1,E*%
%TO.N,Net-(Q1-Pad1)*%
X137100000Y-81000000D03*
D21*
%TO.P,Q1,2,B*%
%TO.N,Net-(Q1-Pad2)*%
X139170000Y-79730000D03*
%TO.P,Q1,3,C*%
%TO.N,Net-(Q1-Pad3)*%
X137100000Y-78460000D03*
%TD*%
D22*
%TO.P,C1,1*%
%TO.N,Net-(C1-Pad1)*%
X123500000Y-85000000D03*
D23*
%TO.P,C1,2*%
%TO.N,RELAY_COIL2*%
X123500000Y-87500000D03*
%TD*%
D24*
%TO.P,Q4,1,G*%
%TO.N,VOUT*%
X149730000Y-83330000D03*
D25*
%TO.P,Q4,2,S*%
%TO.N,RELAY_COIL1*%
X151000000Y-85400000D03*
%TO.P,Q4,3,D*%
%TO.N,Vcc*%
X152270000Y-83330000D03*
%TD*%
D22*
%TO.P,C2,1*%
%TO.N,SIG*%
X132500000Y-85000000D03*
D23*
%TO.P,C2,2*%
%TO.N,RELAY_COIL2*%
X132500000Y-87500000D03*
%TD*%
D20*
%TO.P,Q2,1,E*%
%TO.N,RELAY_COIL2*%
X142600000Y-81000000D03*
D21*
%TO.P,Q2,2,B*%
%TO.N,Net-(Q2-Pad2)*%
X144670000Y-79730000D03*
%TO.P,Q2,3,C*%
%TO.N,Net-(Q1-Pad1)*%
X142600000Y-78460000D03*
%TD*%
D20*
%TO.P,Q3,1,G*%
%TO.N,Net-(Q1-Pad3)*%
X147420000Y-72460000D03*
D26*
%TO.P,Q3,2,S*%
%TO.N,RELAY_COIL2*%
X145350000Y-73730000D03*
%TO.P,Q3,3,D*%
%TO.N,VOUT*%
X147420000Y-75000000D03*
%TD*%
D27*
%TO.N,Net-(R5-Pad2)*%
X118880000Y-77580000D02*
X121920000Y-77580000D01*
X129760480Y-76289520D02*
X130500000Y-75550000D01*
X121920000Y-77580000D02*
X123210480Y-76289520D01*
X123210480Y-76289520D02*
X129760480Y-76289520D01*
%TO.N,SIG*%
X118880000Y-80120000D02*
X121380000Y-80120000D01*
X121380000Y-80120000D02*
X123920000Y-77580000D01*
X123920000Y-77580000D02*
X126500000Y-77580000D01*
%TO.N,COMP2*%
X148050000Y-82000000D02*
X148050000Y-82439270D01*
X148050000Y-82439270D02*
X146289751Y-84199519D01*
X146289751Y-84199519D02*
X144800481Y-84199519D01*
X144800481Y-84199519D02*
X143000000Y-86000000D01*
X143000000Y-86000000D02*
X143000000Y-88500000D01*
X118000000Y-90500000D02*
X116500000Y-89000000D01*
X143000000Y-88500000D02*
X141000000Y-90500000D01*
X141000000Y-90500000D02*
X118000000Y-90500000D01*
X116500000Y-89000000D02*
X116500000Y-77420000D01*
X116500000Y-77420000D02*
X118880000Y-75040000D01*
%TO.N,COMP1*%
X127549520Y-73549520D02*
X138499520Y-73549520D01*
X126500000Y-72500000D02*
X127549520Y-73549520D01*
%TO.N,Vcc*%
X118880000Y-72500000D02*
X119380000Y-72500000D01*
%TO.N,Net-(R3-Pad2)*%
X127900000Y-75040000D02*
X128489520Y-74450480D01*
X126500000Y-75040000D02*
X127900000Y-75040000D01*
%TO.N,Vcc*%
X121380000Y-70500000D02*
X128550000Y-70500000D01*
X128550000Y-70500000D02*
X130500000Y-72450000D01*
%TO.N,RELAY_COIL2*%
X128550000Y-81050000D02*
X130500000Y-81050000D01*
%TO.N,SIG*%
X129100000Y-84500000D02*
X126600000Y-82000000D01*
%TO.N,Net-(R3-Pad2)*%
X132400480Y-74450480D02*
X133500000Y-75550000D01*
%TO.N,RELAY_COIL2*%
X126500000Y-80120000D02*
X127620000Y-80120000D01*
%TO.N,COMP1*%
X138499520Y-73549520D02*
X139950000Y-75000000D01*
%TO.N,Net-(R3-Pad2)*%
X128489520Y-74450480D02*
X132400480Y-74450480D01*
%TO.N,SIG*%
X120760000Y-82000000D02*
X118880000Y-80120000D01*
%TO.N,RELAY_COIL2*%
X127620000Y-80120000D02*
X128550000Y-81050000D01*
%TO.N,SIG*%
X126600000Y-82000000D02*
X120760000Y-82000000D01*
%TO.N,Vcc*%
X119380000Y-72500000D02*
X121380000Y-70500000D01*
X153500000Y-78510730D02*
X153500000Y-75049022D01*
%TO.N,RELAY_COIL2*%
X132500000Y-87500000D02*
X139500000Y-87500000D01*
X139500000Y-87500000D02*
X140000000Y-87000000D01*
%TO.N,Vcc*%
X145080000Y-87000000D02*
X151513896Y-87000000D01*
X151513896Y-87000000D02*
X153969040Y-84544856D01*
X153969040Y-84544856D02*
X153969039Y-83965355D01*
X153969039Y-83965355D02*
X153969039Y-78979769D01*
X153969039Y-78979769D02*
X153500000Y-78510730D01*
%TO.N,RELAY_COIL2*%
X132500000Y-87500000D02*
X134500489Y-85499511D01*
%TO.N,SIG*%
X129100000Y-84500000D02*
X132000000Y-84500000D01*
X132000000Y-84500000D02*
X132500000Y-85000000D01*
%TO.N,RELAY_COIL2*%
X134500489Y-85499511D02*
X134500489Y-81999511D01*
X123500000Y-87500000D02*
X132500000Y-87500000D01*
%TO.N,Vin*%
X118000000Y-84500000D02*
X118000000Y-88000000D01*
X118000000Y-88000000D02*
X118500000Y-88500000D01*
%TO.N,Net-(C1-Pad1)*%
X121100000Y-84500000D02*
X122600000Y-83000000D01*
X121600000Y-85000000D02*
X121100000Y-84500000D01*
X122600000Y-83000000D02*
X124500000Y-83000000D01*
X123500000Y-85000000D02*
X121600000Y-85000000D01*
X124500000Y-83000000D02*
X126000000Y-84500000D01*
%TO.N,RELAY_COIL2*%
X142000489Y-81999511D02*
X134500489Y-81999511D01*
X146000000Y-83500000D02*
X146950480Y-82549520D01*
X145750000Y-75254626D02*
X145750000Y-73730000D01*
X146950480Y-82549520D02*
X146950480Y-76455106D01*
X146950480Y-76455106D02*
X145750000Y-75254626D01*
X144435730Y-83500000D02*
X146000000Y-83500000D01*
X143000000Y-82064270D02*
X144435730Y-83500000D01*
X134449511Y-81999511D02*
X133500000Y-81050000D01*
X143000000Y-81000000D02*
X142000489Y-81999511D01*
X151270000Y-73730000D02*
X152000000Y-73000000D01*
X133500000Y-81050000D02*
X130500000Y-81050000D01*
X145750000Y-73730000D02*
X151270000Y-73730000D01*
X134500489Y-81999511D02*
X134449511Y-81999511D01*
X143000000Y-81000000D02*
X143000000Y-82064270D01*
%TO.N,RELAY_COIL1*%
X151000000Y-85000000D02*
X152524626Y-85000000D01*
X153269520Y-84255106D02*
X153269520Y-79269520D01*
X152524626Y-85000000D02*
X153269520Y-84255106D01*
X153269520Y-79269520D02*
X152000000Y-78000000D01*
%TO.N,Net-(Q1-Pad1)*%
X140162313Y-81000000D02*
X137500000Y-81000000D01*
X143000000Y-78460000D02*
X142702313Y-78460000D01*
X142702313Y-78460000D02*
X140162313Y-81000000D01*
%TO.N,Net-(Q1-Pad2)*%
X138770000Y-79730000D02*
X143050000Y-75450000D01*
X143050000Y-75450000D02*
X143050000Y-75000000D01*
%TO.N,Net-(Q1-Pad3)*%
X141049520Y-74986210D02*
X141049520Y-76461210D01*
X143575730Y-72460000D02*
X141049520Y-74986210D01*
X137500000Y-78460000D02*
X137500000Y-75550000D01*
X141049520Y-76461210D02*
X139050730Y-78460000D01*
X147020000Y-72460000D02*
X143575730Y-72460000D01*
X139050730Y-78460000D02*
X137500000Y-78460000D01*
%TO.N,Net-(Q2-Pad2)*%
X144950000Y-80410000D02*
X144270000Y-79730000D01*
X144950000Y-82000000D02*
X144950000Y-80410000D01*
%TO.N,VOUT*%
X149730000Y-80280000D02*
X149000000Y-79550000D01*
X149730000Y-83730000D02*
X149730000Y-80280000D01*
X147650000Y-77700000D02*
X149000000Y-79050000D01*
X147650000Y-75630000D02*
X147650000Y-77700000D01*
X149000000Y-79050000D02*
X149000000Y-79550000D01*
X147020000Y-75000000D02*
X147650000Y-75630000D01*
%TO.N,Vcc*%
X152270000Y-81770000D02*
X150324520Y-79824520D01*
X150324520Y-77774520D02*
X149000000Y-76450000D01*
X150324520Y-79824520D02*
X150324520Y-77774520D01*
X149000000Y-76450000D02*
X149793454Y-75656546D01*
X138389270Y-72450000D02*
X137500000Y-72450000D01*
X137500000Y-72450000D02*
X133500000Y-72450000D01*
X152270000Y-83730000D02*
X152270000Y-81770000D01*
X152892476Y-75656546D02*
X153500000Y-75049022D01*
X153500000Y-75049022D02*
X153500000Y-70950978D01*
X139439270Y-73500000D02*
X138389270Y-72450000D01*
X133500000Y-72450000D02*
X130500000Y-72450000D01*
X144546460Y-70500000D02*
X141546460Y-73500000D01*
X141546460Y-73500000D02*
X139439270Y-73500000D01*
X153049022Y-70500000D02*
X144546460Y-70500000D01*
X153500000Y-70950978D02*
X153049022Y-70500000D01*
X149793454Y-75656546D02*
X152892476Y-75656546D01*
%TO.N,Net-(R3-Pad2)*%
X133500000Y-77950000D02*
X133500000Y-75550000D01*
%TO.N,Net-(R5-Pad2)*%
X130500000Y-75550000D02*
X130450000Y-75550000D01*
X130500000Y-75550000D02*
X130500000Y-77950000D01*
%TD*%
M02*
