M48
; DRILL file {KiCad 6.0.2+dfsg-1} date Tue 18 Apr 2023 09:24:54 AM EDT
; FORMAT={-:-/ absolute / inch / decimal}
; #@! TF.CreationDate,2023-04-18T09:24:54-04:00
; #@! TF.GenerationSoftware,Kicad,Pcbnew,6.0.2+dfsg-1
; #@! TF.FileFunction,Plated,1,2,PTH
FMAT,2
INCH
; #@! TA.AperFunction,Plated,PTH,ComponentDrill
T1C0.0276
; #@! TA.AperFunction,Plated,PTH,ComponentDrill
T2C0.0295
; #@! TA.AperFunction,Plated,PTH,ComponentDrill
T3C0.0315
; #@! TA.AperFunction,Plated,PTH,ComponentDrill
T4C0.0598
%
G90
G05
T1
X4.6654Y-3.4843
T2
X5.4134Y-3.089
X5.4134Y-3.189
X5.4634Y-3.139
X5.6299Y-3.089
X5.6299Y-3.189
X5.6799Y-3.139
X5.7382Y-2.9028
X5.7882Y-2.8528
X5.7882Y-2.9528
X5.8949Y-3.2965
X5.9449Y-3.3465
X5.9949Y-3.2965
T3
X4.6803Y-2.8543
X4.6803Y-2.9543
X4.6803Y-3.0543
X4.6803Y-3.1543
X4.8622Y-3.3465
X4.8622Y-3.4449
X4.9803Y-2.8543
X4.9803Y-2.9543
X4.9803Y-3.0543
X4.9803Y-3.1543
X5.2165Y-3.3465
X5.2165Y-3.4449
T4
X5.5118Y-3.4252
X5.7118Y-3.4252
T0
M30
