%TF.GenerationSoftware,KiCad,Pcbnew,(6.0.4)*%
%TF.CreationDate,2022-08-13T16:34:13-04:00*%
%TF.ProjectId,Atmega_remote,41746d65-6761-45f7-9265-6d6f74652e6b,rev?*%
%TF.SameCoordinates,Original*%
%TF.FileFunction,Copper,L1,Top*%
%TF.FilePolarity,Positive*%
%FSLAX46Y46*%
G04 Gerber Fmt 4.6, Leading zero omitted, Abs format (unit mm)*
G04 Created by KiCad (PCBNEW (6.0.4)) date 2022-08-13 16:34:13*
%MOMM*%
%LPD*%
G01*
G04 APERTURE LIST*
G04 Aperture macros list*
%AMRoundRect*
0 Rectangle with rounded corners*
0 $1 Rounding radius*
0 $2 $3 $4 $5 $6 $7 $8 $9 X,Y pos of 4 corners*
0 Add a 4 corners polygon primitive as box body*
4,1,4,$2,$3,$4,$5,$6,$7,$8,$9,$2,$3,0*
0 Add four circle primitives for the rounded corners*
1,1,$1+$1,$2,$3*
1,1,$1+$1,$4,$5*
1,1,$1+$1,$6,$7*
1,1,$1+$1,$8,$9*
0 Add four rect primitives between the rounded corners*
20,1,$1+$1,$2,$3,$4,$5,0*
20,1,$1+$1,$4,$5,$6,$7,0*
20,1,$1+$1,$6,$7,$8,$9,0*
20,1,$1+$1,$8,$9,$2,$3,0*%
G04 Aperture macros list end*
%TA.AperFunction,SMDPad,CuDef*%
%ADD10RoundRect,0.250000X0.625000X-0.312500X0.625000X0.312500X-0.625000X0.312500X-0.625000X-0.312500X0*%
%TD*%
%TA.AperFunction,SMDPad,CuDef*%
%ADD11RoundRect,0.250000X-0.625000X0.312500X-0.625000X-0.312500X0.625000X-0.312500X0.625000X0.312500X0*%
%TD*%
%TA.AperFunction,SMDPad,CuDef*%
%ADD12RoundRect,0.250000X0.650000X-0.325000X0.650000X0.325000X-0.650000X0.325000X-0.650000X-0.325000X0*%
%TD*%
%TA.AperFunction,ComponentPad*%
%ADD13C,2.800000*%
%TD*%
%TA.AperFunction,ComponentPad*%
%ADD14C,2.000000*%
%TD*%
%TA.AperFunction,ComponentPad*%
%ADD15RoundRect,0.250000X0.350000X0.625000X-0.350000X0.625000X-0.350000X-0.625000X0.350000X-0.625000X0*%
%TD*%
%TA.AperFunction,ComponentPad*%
%ADD16O,1.200000X1.750000*%
%TD*%
%TA.AperFunction,SMDPad,CuDef*%
%ADD17R,1.600000X0.550000*%
%TD*%
%TA.AperFunction,SMDPad,CuDef*%
%ADD18R,0.550000X1.600000*%
%TD*%
%TA.AperFunction,SMDPad,CuDef*%
%ADD19RoundRect,0.250000X-0.312500X-0.625000X0.312500X-0.625000X0.312500X0.625000X-0.312500X0.625000X0*%
%TD*%
%TA.AperFunction,Conductor*%
%ADD20C,0.400000*%
%TD*%
%TA.AperFunction,Conductor*%
%ADD21C,0.500000*%
%TD*%
G04 APERTURE END LIST*
D10*
%TO.P,J,1*%
%TO.N,VCC*%
X140900000Y-74037500D03*
X140900000Y-76962500D03*
%TD*%
D11*
%TO.P,R5,1*%
%TO.N,Button1*%
X138900000Y-79737500D03*
%TO.P,R5,2*%
%TO.N,VCC*%
X138900000Y-82662500D03*
%TD*%
D12*
%TO.P,C2,1*%
%TO.N,Net-(U1-Pad29)*%
X128700000Y-74275000D03*
%TO.P,C2,2*%
%TO.N,GND*%
X128700000Y-71325000D03*
%TD*%
%TO.P,C1,1*%
%TO.N,VCC*%
X136400000Y-82675000D03*
%TO.P,C1,2*%
%TO.N,GND*%
X136400000Y-79725000D03*
%TD*%
D10*
%TO.P,J,1*%
%TO.N,VCC*%
X138200000Y-74362500D03*
X138200000Y-71437500D03*
%TD*%
D13*
%TO.P,TP0,1,1*%
%TO.N,PB0*%
X145000000Y-76080000D03*
%TD*%
D14*
%TO.P,SW1,1,1*%
%TO.N,Net-(R1-Pad2)*%
X117150000Y-84150000D03*
X117150000Y-77650000D03*
%TO.P,SW1,2,2*%
%TO.N,GND*%
X121650000Y-84150000D03*
X121650000Y-77650000D03*
%TD*%
D10*
%TO.P,R2,1*%
%TO.N,Button4*%
X132100000Y-74262500D03*
%TO.P,R2,2*%
%TO.N,VCC*%
X132100000Y-71337500D03*
%TD*%
D15*
%TO.P,J1,1,Pin_1*%
%TO.N,Button1*%
X131700000Y-67500000D03*
D16*
%TO.P,J1,2,Pin_2*%
%TO.N,Button2*%
X129700000Y-67500000D03*
%TO.P,J1,3,Pin_3*%
%TO.N,Button3*%
X127700000Y-67500000D03*
%TO.P,J1,4,Pin_4*%
%TO.N,Button4*%
X125700000Y-67500000D03*
%TO.P,J1,5,Pin_5*%
%TO.N,VCC*%
X123700000Y-67500000D03*
%TO.P,J1,6,Pin_6*%
%TO.N,GND*%
X121700000Y-67500000D03*
%TD*%
D13*
%TO.P,TP1,1,1*%
%TO.N,PB1*%
X145000000Y-81160000D03*
%TD*%
%TO.P,TP2,1,1*%
%TO.N,PB2*%
X145000000Y-71000000D03*
%TD*%
D10*
%TO.P,R1,1*%
%TO.N,Net-(U1-Pad29)*%
X126200000Y-74262500D03*
%TO.P,R1,2*%
%TO.N,Net-(R1-Pad2)*%
X126200000Y-71337500D03*
%TD*%
D17*
%TO.P,U1,1,PD3*%
%TO.N,unconnected-(U1-Pad1)*%
X125150000Y-77900000D03*
%TO.P,U1,2,PD4*%
%TO.N,unconnected-(U1-Pad2)*%
X125150000Y-78700000D03*
%TO.P,U1,3,GND*%
%TO.N,GND*%
X125150000Y-79500000D03*
%TO.P,U1,4,VCC*%
%TO.N,VCC*%
X125150000Y-80300000D03*
%TO.P,U1,5,GND*%
%TO.N,GND*%
X125150000Y-81100000D03*
%TO.P,U1,6,VCC*%
%TO.N,VCC*%
X125150000Y-81900000D03*
%TO.P,U1,7,XTAL1/PB6*%
%TO.N,unconnected-(U1-Pad7)*%
X125150000Y-82700000D03*
%TO.P,U1,8,XTAL2/PB7*%
%TO.N,unconnected-(U1-Pad8)*%
X125150000Y-83500000D03*
D18*
%TO.P,U1,9,PD5*%
%TO.N,unconnected-(U1-Pad9)*%
X126600000Y-84950000D03*
%TO.P,U1,10,PD6*%
%TO.N,unconnected-(U1-Pad10)*%
X127400000Y-84950000D03*
%TO.P,U1,11,PD7*%
%TO.N,unconnected-(U1-Pad11)*%
X128200000Y-84950000D03*
%TO.P,U1,12,PB0*%
%TO.N,PB0*%
X129000000Y-84950000D03*
%TO.P,U1,13,PB1*%
%TO.N,PB1*%
X129800000Y-84950000D03*
%TO.P,U1,14,PB2*%
%TO.N,PB2*%
X130600000Y-84950000D03*
%TO.P,U1,15,PB3*%
%TO.N,MOSI*%
X131400000Y-84950000D03*
%TO.P,U1,16,PB4*%
%TO.N,MISO*%
X132200000Y-84950000D03*
D17*
%TO.P,U1,17,PB5*%
%TO.N,SCK*%
X133650000Y-83500000D03*
%TO.P,U1,18,AVCC*%
%TO.N,VCC*%
X133650000Y-82700000D03*
%TO.P,U1,19,ADC6*%
%TO.N,unconnected-(U1-Pad19)*%
X133650000Y-81900000D03*
%TO.P,U1,20,AREF*%
%TO.N,VCC*%
X133650000Y-81100000D03*
%TO.P,U1,21,GND*%
%TO.N,GND*%
X133650000Y-80300000D03*
%TO.P,U1,22,ADC7*%
%TO.N,unconnected-(U1-Pad22)*%
X133650000Y-79500000D03*
%TO.P,U1,23,PC0*%
%TO.N,Button1*%
X133650000Y-78700000D03*
%TO.P,U1,24,PC1*%
%TO.N,Button2*%
X133650000Y-77900000D03*
D18*
%TO.P,U1,25,PC2*%
%TO.N,Button3*%
X132200000Y-76450000D03*
%TO.P,U1,26,PC3*%
%TO.N,Button4*%
X131400000Y-76450000D03*
%TO.P,U1,27,PC4*%
%TO.N,unconnected-(U1-Pad27)*%
X130600000Y-76450000D03*
%TO.P,U1,28,PC5*%
%TO.N,unconnected-(U1-Pad28)*%
X129800000Y-76450000D03*
%TO.P,U1,29,~{RESET}/PC6*%
%TO.N,Net-(U1-Pad29)*%
X129000000Y-76450000D03*
%TO.P,U1,30,PD0*%
%TO.N,unconnected-(U1-Pad30)*%
X128200000Y-76450000D03*
%TO.P,U1,31,PD1*%
%TO.N,unconnected-(U1-Pad31)*%
X127400000Y-76450000D03*
%TO.P,U1,32,PD2*%
%TO.N,unconnected-(U1-Pad32)*%
X126600000Y-76450000D03*
%TD*%
D19*
%TO.P,R4,1*%
%TO.N,Button2*%
X135537500Y-77100000D03*
%TO.P,R4,2*%
%TO.N,VCC*%
X138462500Y-77100000D03*
%TD*%
D10*
%TO.P,R3,1*%
%TO.N,Button3*%
X134500000Y-74262500D03*
%TO.P,R3,2*%
%TO.N,VCC*%
X134500000Y-71337500D03*
%TD*%
D20*
%TO.N,VCC*%
X134600000Y-71437500D02*
X134500000Y-71337500D01*
D21*
X140224520Y-81337980D02*
X138900000Y-82662500D01*
X140224520Y-78862020D02*
X140224520Y-81337980D01*
D20*
X123700000Y-67781440D02*
X125669520Y-69750960D01*
X126324022Y-80300000D02*
X125150000Y-80300000D01*
X131524606Y-71337500D02*
X132100000Y-71337500D01*
X138200000Y-76837500D02*
X138462500Y-77100000D01*
X123700000Y-67500000D02*
X123700000Y-67781440D01*
X140900000Y-74037500D02*
X138525000Y-74037500D01*
D21*
X133675000Y-82675000D02*
X133650000Y-82700000D01*
D20*
X138525000Y-74037500D02*
X138200000Y-74362500D01*
D21*
X138900000Y-82662500D02*
X136412500Y-82662500D01*
D20*
X125669520Y-69750960D02*
X129938066Y-69750960D01*
X129938066Y-69750960D02*
X131524606Y-71337500D01*
X140900000Y-76962500D02*
X138600000Y-76962500D01*
X125150000Y-81900000D02*
X126450000Y-81900000D01*
X126450000Y-81900000D02*
X127124022Y-81225978D01*
X127124022Y-81100000D02*
X126324022Y-80300000D01*
X138600000Y-76962500D02*
X138462500Y-77100000D01*
D21*
X136412500Y-82662500D02*
X136400000Y-82675000D01*
D20*
X138200000Y-71437500D02*
X134600000Y-71437500D01*
D21*
X138462500Y-77100000D02*
X140224520Y-78862020D01*
X136400000Y-82300000D02*
X135200000Y-81100000D01*
X136400000Y-82675000D02*
X136400000Y-82300000D01*
X132100000Y-71337500D02*
X134500000Y-71337500D01*
D20*
X133650000Y-81100000D02*
X127124022Y-81100000D01*
X127124022Y-81225978D02*
X127124022Y-81100000D01*
D21*
X135200000Y-81100000D02*
X133650000Y-81100000D01*
X136400000Y-82675000D02*
X133675000Y-82675000D01*
D20*
%TO.N,GND*%
X123975978Y-79500000D02*
X123700000Y-79775978D01*
X123700000Y-80824022D02*
X123975978Y-81100000D01*
X122500000Y-78500000D02*
X122500000Y-79624022D01*
D21*
X115700489Y-84750408D02*
X116549592Y-85599511D01*
X125285250Y-73250480D02*
X121650000Y-76885730D01*
X121650000Y-76885730D02*
X121650000Y-77650000D01*
X128700000Y-71325000D02*
X126774520Y-73250480D01*
D20*
X123975978Y-81100000D02*
X125150000Y-81100000D01*
X121650000Y-77650000D02*
X122500000Y-78500000D01*
X123700000Y-79775978D02*
X123700000Y-80824022D01*
D21*
X136400000Y-79725000D02*
X135825000Y-80300000D01*
X115700489Y-76499511D02*
X115700489Y-84750408D01*
X126774520Y-73250480D02*
X125285250Y-73250480D01*
X120200489Y-85599511D02*
X121650000Y-84150000D01*
D20*
X132475978Y-80300000D02*
X133650000Y-80300000D01*
X125150000Y-79500000D02*
X131675978Y-79500000D01*
D21*
X121650000Y-84150000D02*
X121650000Y-77650000D01*
X116549592Y-85599511D02*
X120200489Y-85599511D01*
X121700000Y-70500000D02*
X115700489Y-76499511D01*
X135825000Y-80300000D02*
X133650000Y-80300000D01*
D20*
X122500000Y-79624022D02*
X123700000Y-80824022D01*
X131675978Y-79500000D02*
X132475978Y-80300000D01*
D21*
X121700000Y-67500000D02*
X121700000Y-70500000D01*
D20*
X125150000Y-79500000D02*
X123975978Y-79500000D01*
D21*
%TO.N,Net-(U1-Pad29)*%
X128700000Y-74275000D02*
X129000000Y-74575000D01*
X126200000Y-74262500D02*
X128687500Y-74262500D01*
X129000000Y-74575000D02*
X129000000Y-76450000D01*
X128687500Y-74262500D02*
X128700000Y-74275000D01*
%TO.N,Button4*%
X131400000Y-76450000D02*
X131400000Y-74962500D01*
D20*
X122700480Y-66810986D02*
X122700480Y-69200480D01*
X125700000Y-67500000D02*
X124425480Y-66225480D01*
X123850480Y-70350480D02*
X129619039Y-70350480D01*
X130825480Y-71556921D02*
X130825480Y-72987980D01*
X129619039Y-70350480D02*
X130825480Y-71556921D01*
X123285986Y-66225480D02*
X122700480Y-66810986D01*
D21*
X131400000Y-74962500D02*
X132100000Y-74262500D01*
D20*
X122700480Y-69200480D02*
X123850480Y-70350480D01*
X124425480Y-66225480D02*
X123285986Y-66225480D01*
X130825480Y-72987980D02*
X132100000Y-74262500D01*
D21*
%TO.N,Net-(R1-Pad2)*%
X123462500Y-71337500D02*
X126200000Y-71337500D01*
X117150000Y-77650000D02*
X123462500Y-71337500D01*
X117150000Y-84150000D02*
X117150000Y-77650000D01*
D20*
%TO.N,Button3*%
X139474520Y-70774520D02*
X139474520Y-72019039D01*
X127700000Y-67700000D02*
X129151440Y-69151440D01*
D21*
X134500000Y-74262500D02*
X134387500Y-74262500D01*
D20*
X127700000Y-67500000D02*
X127700000Y-67700000D01*
X130257106Y-69151440D02*
X131481146Y-70375480D01*
X129151440Y-69151440D02*
X130257106Y-69151440D01*
X138893559Y-72600000D02*
X136162500Y-72600000D01*
X139474520Y-72019039D02*
X138893559Y-72600000D01*
D21*
X134387500Y-74262500D02*
X132200000Y-76450000D01*
D20*
X136162500Y-72600000D02*
X134500000Y-74262500D01*
X139075480Y-70375480D02*
X139474520Y-70774520D01*
X131481146Y-70375480D02*
X139075480Y-70375480D01*
%TO.N,Button2*%
X139141408Y-73200000D02*
X136410350Y-73200000D01*
X131729476Y-69775960D02*
X139323810Y-69775960D01*
X129700000Y-67500000D02*
X129700000Y-68200000D01*
X136000000Y-74618559D02*
X135537500Y-75081059D01*
X129700000Y-68200000D02*
X130051920Y-68551920D01*
D21*
X134737500Y-77900000D02*
X135537500Y-77100000D01*
D20*
X139323810Y-69775960D02*
X140074040Y-70526191D01*
X135537500Y-75081059D02*
X135537500Y-77100000D01*
X130051920Y-68551920D02*
X130505436Y-68551920D01*
X130505436Y-68551920D02*
X131729476Y-69775960D01*
X140074040Y-70526191D02*
X140074040Y-72267369D01*
X139993315Y-72348093D02*
X139141408Y-73200000D01*
D21*
X133650000Y-77900000D02*
X134737500Y-77900000D01*
D20*
X136000000Y-73610350D02*
X136000000Y-74618559D01*
X136410350Y-73200000D02*
X136000000Y-73610350D01*
X140074040Y-72267369D02*
X139993315Y-72348093D01*
%TO.N,Button1*%
X140673560Y-71955001D02*
X142174520Y-73455961D01*
X140673560Y-70277862D02*
X140673560Y-71955001D01*
D21*
X138900000Y-79737500D02*
X137862500Y-78700000D01*
D20*
X142174520Y-73455961D02*
X142174520Y-74619039D01*
X136700000Y-76500000D02*
X136700000Y-78700000D01*
X137500000Y-75700000D02*
X136700000Y-76500000D01*
D21*
X137862500Y-78700000D02*
X136700000Y-78700000D01*
D20*
X137895698Y-67500000D02*
X140673560Y-70277862D01*
X131700000Y-67500000D02*
X137895698Y-67500000D01*
X141093559Y-75700000D02*
X137500000Y-75700000D01*
X142174520Y-74619039D02*
X141093559Y-75700000D01*
D21*
X136700000Y-78700000D02*
X133650000Y-78700000D01*
D20*
%TO.N,PB0*%
X129000000Y-86157711D02*
X129000000Y-84950000D01*
X147000000Y-78080000D02*
X147000000Y-83000000D01*
X147000000Y-83000000D02*
X142300960Y-87699040D01*
X130541329Y-87699040D02*
X129000000Y-86157711D01*
X145000000Y-76080000D02*
X147000000Y-78080000D01*
X142300960Y-87699040D02*
X130541329Y-87699040D01*
%TO.N,PB1*%
X130789659Y-87099520D02*
X129800000Y-86109861D01*
X129800000Y-86109861D02*
X129800000Y-84950000D01*
X145000000Y-81160000D02*
X139060480Y-87099520D01*
X139060480Y-87099520D02*
X130789659Y-87099520D01*
%TO.N,PB2*%
X145000000Y-72979898D02*
X142500000Y-75479898D01*
X142500000Y-80918559D02*
X136918559Y-86500000D01*
X145000000Y-71000000D02*
X145000000Y-72979898D01*
X130600000Y-86062011D02*
X130600000Y-84950000D01*
X142500000Y-75479898D02*
X142500000Y-80918559D01*
X136918559Y-86500000D02*
X131037989Y-86500000D01*
X131037989Y-86500000D02*
X130600000Y-86062011D01*
%TD*%
M02*
