%TF.GenerationSoftware,KiCad,Pcbnew,(6.0.4)*%
%TF.CreationDate,2022-08-12T18:59:09-04:00*%
%TF.ProjectId,Atmega_remote,41746d65-6761-45f7-9265-6d6f74652e6b,rev?*%
%TF.SameCoordinates,Original*%
%TF.FileFunction,Soldermask,Top*%
%TF.FilePolarity,Negative*%
%FSLAX46Y46*%
G04 Gerber Fmt 4.6, Leading zero omitted, Abs format (unit mm)*
G04 Created by KiCad (PCBNEW (6.0.4)) date 2022-08-12 18:59:09*
%MOMM*%
%LPD*%
G01*
G04 APERTURE LIST*
G04 Aperture macros list*
%AMRoundRect*
0 Rectangle with rounded corners*
0 $1 Rounding radius*
0 $2 $3 $4 $5 $6 $7 $8 $9 X,Y pos of 4 corners*
0 Add a 4 corners polygon primitive as box body*
4,1,4,$2,$3,$4,$5,$6,$7,$8,$9,$2,$3,0*
0 Add four circle primitives for the rounded corners*
1,1,$1+$1,$2,$3*
1,1,$1+$1,$4,$5*
1,1,$1+$1,$6,$7*
1,1,$1+$1,$8,$9*
0 Add four rect primitives between the rounded corners*
20,1,$1+$1,$2,$3,$4,$5,0*
20,1,$1+$1,$4,$5,$6,$7,0*
20,1,$1+$1,$6,$7,$8,$9,0*
20,1,$1+$1,$8,$9,$2,$3,0*%
G04 Aperture macros list end*
%ADD10RoundRect,0.250000X0.625000X-0.312500X0.625000X0.312500X-0.625000X0.312500X-0.625000X-0.312500X0*%
%ADD11RoundRect,0.250000X-0.625000X0.312500X-0.625000X-0.312500X0.625000X-0.312500X0.625000X0.312500X0*%
%ADD12RoundRect,0.250000X0.650000X-0.325000X0.650000X0.325000X-0.650000X0.325000X-0.650000X-0.325000X0*%
%ADD13C,2.800000*%
%ADD14C,2.000000*%
%ADD15RoundRect,0.250000X0.350000X0.625000X-0.350000X0.625000X-0.350000X-0.625000X0.350000X-0.625000X0*%
%ADD16O,1.200000X1.750000*%
%ADD17R,1.600000X0.550000*%
%ADD18R,0.550000X1.600000*%
%ADD19RoundRect,0.250000X-0.312500X-0.625000X0.312500X-0.625000X0.312500X0.625000X-0.312500X0.625000X0*%
G04 APERTURE END LIST*
D10*
%TO.C,J*%
X140900000Y-74037500D03*
X140900000Y-76962500D03*
%TD*%
D11*
%TO.C,R5*%
X138900000Y-79737500D03*
X138900000Y-82662500D03*
%TD*%
D12*
%TO.C,C2*%
X128700000Y-74275000D03*
X128700000Y-71325000D03*
%TD*%
%TO.C,C1*%
X136400000Y-82675000D03*
X136400000Y-79725000D03*
%TD*%
D10*
%TO.C,J*%
X138200000Y-74362500D03*
X138200000Y-71437500D03*
%TD*%
D13*
%TO.C,TP0*%
X145000000Y-76080000D03*
%TD*%
D14*
%TO.C,SW1*%
X117150000Y-84150000D03*
X117150000Y-77650000D03*
X121650000Y-84150000D03*
X121650000Y-77650000D03*
%TD*%
D10*
%TO.C,R2*%
X132100000Y-74262500D03*
X132100000Y-71337500D03*
%TD*%
D15*
%TO.C,J1*%
X131700000Y-67500000D03*
D16*
X129700000Y-67500000D03*
X127700000Y-67500000D03*
X125700000Y-67500000D03*
X123700000Y-67500000D03*
X121700000Y-67500000D03*
%TD*%
D13*
%TO.C,TP1*%
X145000000Y-81160000D03*
%TD*%
%TO.C,TP2*%
X145000000Y-71000000D03*
%TD*%
D10*
%TO.C,R1*%
X126200000Y-74262500D03*
X126200000Y-71337500D03*
%TD*%
D17*
%TO.C,U1*%
X125150000Y-77900000D03*
X125150000Y-78700000D03*
X125150000Y-79500000D03*
X125150000Y-80300000D03*
X125150000Y-81100000D03*
X125150000Y-81900000D03*
X125150000Y-82700000D03*
X125150000Y-83500000D03*
D18*
X126600000Y-84950000D03*
X127400000Y-84950000D03*
X128200000Y-84950000D03*
X129000000Y-84950000D03*
X129800000Y-84950000D03*
X130600000Y-84950000D03*
X131400000Y-84950000D03*
X132200000Y-84950000D03*
D17*
X133650000Y-83500000D03*
X133650000Y-82700000D03*
X133650000Y-81900000D03*
X133650000Y-81100000D03*
X133650000Y-80300000D03*
X133650000Y-79500000D03*
X133650000Y-78700000D03*
X133650000Y-77900000D03*
D18*
X132200000Y-76450000D03*
X131400000Y-76450000D03*
X130600000Y-76450000D03*
X129800000Y-76450000D03*
X129000000Y-76450000D03*
X128200000Y-76450000D03*
X127400000Y-76450000D03*
X126600000Y-76450000D03*
%TD*%
D19*
%TO.C,R4*%
X135537500Y-77100000D03*
X138462500Y-77100000D03*
%TD*%
D10*
%TO.C,R3*%
X134500000Y-74262500D03*
X134500000Y-71337500D03*
%TD*%
M02*
