%TF.GenerationSoftware,KiCad,Pcbnew,(6.0.4)*%
%TF.CreationDate,2022-08-07T21:17:39-04:00*%
%TF.ProjectId,duty_cycle,64757479-5f63-4796-936c-652e6b696361,rev?*%
%TF.SameCoordinates,Original*%
%TF.FileFunction,Copper,L1,Top*%
%TF.FilePolarity,Positive*%
%FSLAX46Y46*%
G04 Gerber Fmt 4.6, Leading zero omitted, Abs format (unit mm)*
G04 Created by KiCad (PCBNEW (6.0.4)) date 2022-08-07 21:17:39*
%MOMM*%
%LPD*%
G01*
G04 APERTURE LIST*
G04 Aperture macros list*
%AMRoundRect*
0 Rectangle with rounded corners*
0 $1 Rounding radius*
0 $2 $3 $4 $5 $6 $7 $8 $9 X,Y pos of 4 corners*
0 Add a 4 corners polygon primitive as box body*
4,1,4,$2,$3,$4,$5,$6,$7,$8,$9,$2,$3,0*
0 Add four circle primitives for the rounded corners*
1,1,$1+$1,$2,$3*
1,1,$1+$1,$4,$5*
1,1,$1+$1,$6,$7*
1,1,$1+$1,$8,$9*
0 Add four rect primitives between the rounded corners*
20,1,$1+$1,$2,$3,$4,$5,0*
20,1,$1+$1,$4,$5,$6,$7,0*
20,1,$1+$1,$6,$7,$8,$9,0*
20,1,$1+$1,$8,$9,$2,$3,0*%
G04 Aperture macros list end*
%TA.AperFunction,SMDPad,CuDef*%
%ADD10RoundRect,0.250000X0.650000X-0.325000X0.650000X0.325000X-0.650000X0.325000X-0.650000X-0.325000X0*%
%TD*%
%TA.AperFunction,ComponentPad*%
%ADD11R,2.400000X1.600000*%
%TD*%
%TA.AperFunction,ComponentPad*%
%ADD12O,2.400000X1.600000*%
%TD*%
%TA.AperFunction,SMDPad,CuDef*%
%ADD13RoundRect,0.250000X-0.625000X0.312500X-0.625000X-0.312500X0.625000X-0.312500X0.625000X0.312500X0*%
%TD*%
%TA.AperFunction,SMDPad,CuDef*%
%ADD14RoundRect,0.250000X0.625000X-0.312500X0.625000X0.312500X-0.625000X0.312500X-0.625000X-0.312500X0*%
%TD*%
%TA.AperFunction,ComponentPad*%
%ADD15R,3.000000X3.000000*%
%TD*%
%TA.AperFunction,ComponentPad*%
%ADD16C,3.000000*%
%TD*%
%TA.AperFunction,ComponentPad*%
%ADD17C,1.524000*%
%TD*%
%TA.AperFunction,Conductor*%
%ADD18C,0.500000*%
%TD*%
%TA.AperFunction,Conductor*%
%ADD19C,0.250000*%
%TD*%
G04 APERTURE END LIST*
D10*
%TO.P,C1,2*%
%TO.N,GND*%
X133800000Y-93025000D03*
%TO.P,C1,1*%
%TO.N,Net-(C1-Pad1)*%
X133800000Y-95975000D03*
%TD*%
D11*
%TO.P,U1,1*%
%TO.N,Net-(R3-Pad1)*%
X124100000Y-87180000D03*
D12*
%TO.P,U1,2,-*%
%TO.N,Net-(C1-Pad1)*%
X124100000Y-89720000D03*
%TO.P,U1,3,+*%
%TO.N,Net-(R1-Pad2)*%
X124100000Y-92260000D03*
%TO.P,U1,4,V-*%
%TO.N,GND*%
X124100000Y-94800000D03*
%TO.P,U1,5,+*%
%TO.N,Net-(C1-Pad1)*%
X116480000Y-94800000D03*
%TO.P,U1,6,-*%
%TO.N,Net-(RV1-Pad2)*%
X116480000Y-92260000D03*
%TO.P,U1,7*%
%TO.N,Net-(J2-Pad1)*%
X116480000Y-89720000D03*
%TO.P,U1,8,V+*%
%TO.N,VCC*%
X116480000Y-87180000D03*
%TD*%
D13*
%TO.P,R4,2*%
%TO.N,Net-(C1-Pad1)*%
X136200000Y-95962500D03*
%TO.P,R4,1*%
%TO.N,Net-(R3-Pad1)*%
X136200000Y-93037500D03*
%TD*%
%TO.P,R3,2*%
%TO.N,Net-(R1-Pad2)*%
X138600000Y-95925000D03*
%TO.P,R3,1*%
%TO.N,Net-(R3-Pad1)*%
X138600000Y-93000000D03*
%TD*%
D14*
%TO.P,R2,2*%
%TO.N,GND*%
X131300000Y-93037500D03*
%TO.P,R2,1*%
%TO.N,Net-(R1-Pad2)*%
X131300000Y-95962500D03*
%TD*%
D13*
%TO.P,R1,2*%
%TO.N,Net-(R1-Pad2)*%
X128600000Y-95962500D03*
%TO.P,R1,1*%
%TO.N,VCC*%
X128600000Y-93037500D03*
%TD*%
D15*
%TO.P,RV1,1,1*%
%TO.N,GND*%
X130200000Y-88300000D03*
D16*
%TO.P,RV1,2,2*%
%TO.N,Net-(RV1-Pad2)*%
X135200000Y-88300000D03*
%TO.P,RV1,3,3*%
%TO.N,VCC*%
X140200000Y-88300000D03*
%TD*%
D17*
%TO.P,J2,1,Pin_1*%
%TO.N,Net-(J2-Pad1)*%
X149025000Y-93550000D03*
%TO.P,J2,2,Pin_2*%
%TO.N,GND*%
X149025000Y-90050000D03*
%TD*%
%TO.P,J1,2,Pin_2*%
%TO.N,GND*%
X110625000Y-89350000D03*
%TO.P,J1,1,Pin_1*%
%TO.N,VCC*%
X110625000Y-92850000D03*
%TD*%
D18*
%TO.N,Net-(C1-Pad1)*%
X136187500Y-95975000D02*
X136200000Y-95962500D01*
X133800000Y-95975000D02*
X136187500Y-95975000D01*
%TO.N,Net-(R1-Pad2)*%
X132337500Y-97000000D02*
X131300000Y-95962500D01*
X138600000Y-95925000D02*
X137525000Y-97000000D01*
%TO.N,Net-(J2-Pad1)*%
X144875490Y-97699510D02*
X149025000Y-93550000D01*
X128410240Y-97699510D02*
X144875490Y-97699510D01*
X127275480Y-96564750D02*
X128410240Y-97699510D01*
X127275480Y-95808392D02*
X127275480Y-96564750D01*
X124976608Y-93509520D02*
X127275480Y-95808392D01*
X122590480Y-93509520D02*
X124976608Y-93509520D01*
X120050480Y-96049520D02*
X122590480Y-93509520D01*
X115562432Y-96049520D02*
X120050480Y-96049520D01*
X114830480Y-91369520D02*
X114830480Y-95317568D01*
X114830480Y-95317568D02*
X115562432Y-96049520D01*
X116480000Y-89720000D02*
X114830480Y-91369520D01*
%TO.N,GND*%
X150236511Y-94051825D02*
X150236511Y-91261511D01*
X127699020Y-98399020D02*
X145889316Y-98399020D01*
%TO.N,Net-(R1-Pad2)*%
X137525000Y-97000000D02*
X132337500Y-97000000D01*
%TO.N,GND*%
X150236511Y-91261511D02*
X149025000Y-90050000D01*
X124100000Y-94800000D02*
X127699020Y-98399020D01*
X145889316Y-98399020D02*
X150236511Y-94051825D01*
X134260730Y-93025000D02*
X133800000Y-93025000D01*
X135285250Y-94049520D02*
X134260730Y-93025000D01*
X139477250Y-94049520D02*
X135285250Y-94049520D01*
X139924520Y-93602250D02*
X139477250Y-94049520D01*
X139924520Y-91624520D02*
X139924520Y-93602250D01*
X137149511Y-88849511D02*
X139924520Y-91624520D01*
X137149511Y-87492485D02*
X137149511Y-88849511D01*
X135657026Y-86000000D02*
X137149511Y-87492485D01*
X134400000Y-86000000D02*
X135657026Y-86000000D01*
X133300000Y-84900000D02*
X134400000Y-86000000D01*
X110625000Y-89350000D02*
X111504520Y-88470480D01*
%TO.N,Net-(RV1-Pad2)*%
X119200000Y-89540000D02*
X116480000Y-92260000D01*
%TO.N,GND*%
X117356608Y-88470480D02*
X120927088Y-84900000D01*
%TO.N,Net-(RV1-Pad2)*%
X135200000Y-88300000D02*
X132550979Y-85650979D01*
X132550979Y-85650979D02*
X121165367Y-85650979D01*
X121165367Y-85650979D02*
X119200000Y-87616346D01*
%TO.N,GND*%
X120927088Y-84900000D02*
X133300000Y-84900000D01*
%TO.N,Net-(RV1-Pad2)*%
X119200000Y-87616346D02*
X119200000Y-89540000D01*
%TO.N,GND*%
X111504520Y-88470480D02*
X117356608Y-88470480D01*
%TO.N,VCC*%
X136000490Y-84100490D02*
X140200000Y-88300000D01*
X119159510Y-84100490D02*
X136000490Y-84100490D01*
X116480000Y-86780000D02*
X119159510Y-84100490D01*
X116480000Y-87180000D02*
X116480000Y-86780000D01*
X139766998Y-94749030D02*
X141700000Y-92816027D01*
X128600000Y-93037500D02*
X129612020Y-94049520D01*
X129612020Y-94049520D02*
X134295992Y-94049520D01*
X141700000Y-89800000D02*
X140200000Y-88300000D01*
X141700000Y-92816027D02*
X141700000Y-89800000D01*
X134295992Y-94049520D02*
X134995504Y-94749031D01*
X134995504Y-94749031D02*
X139766998Y-94749030D01*
%TO.N,Net-(R3-Pad1)*%
X133000000Y-87200978D02*
X133000000Y-89837500D01*
X132149511Y-86350489D02*
X133000000Y-87200978D01*
X124929511Y-86350489D02*
X132149511Y-86350489D01*
X124100000Y-87180000D02*
X124929511Y-86350489D01*
X133000000Y-89837500D02*
X136200000Y-93037500D01*
%TO.N,Net-(C1-Pad1)*%
X132775480Y-94950480D02*
X133800000Y-95975000D01*
X128586210Y-94950480D02*
X132775480Y-94950480D01*
X127275480Y-92895480D02*
X127275480Y-93639750D01*
X124100000Y-89720000D02*
X127275480Y-92895480D01*
X127275480Y-93639750D02*
X128586210Y-94950480D01*
%TO.N,Net-(R3-Pad1)*%
X138562500Y-93037500D02*
X138600000Y-93000000D01*
X136200000Y-93037500D02*
X138562500Y-93037500D01*
%TO.N,GND*%
X131312500Y-93025000D02*
X131300000Y-93037500D01*
X133800000Y-93025000D02*
X131312500Y-93025000D01*
X132412020Y-91925480D02*
X131300000Y-93037500D01*
X132412020Y-90512020D02*
X132412020Y-91925480D01*
X130200000Y-88300000D02*
X132412020Y-90512020D01*
%TO.N,Net-(C1-Pad1)*%
X119020000Y-94800000D02*
X124100000Y-89720000D01*
X116480000Y-94800000D02*
X119020000Y-94800000D01*
%TO.N,GND*%
X122150970Y-96749030D02*
X124100000Y-94800000D01*
X115259772Y-96749030D02*
X122150970Y-96749030D01*
X114130970Y-95620228D02*
X115259772Y-96749030D01*
X114130970Y-92855970D02*
X114130970Y-95620228D01*
X110625000Y-89350000D02*
X114130970Y-92855970D01*
%TO.N,Net-(R3-Pad1)*%
X136900000Y-93037500D02*
X137000000Y-92937500D01*
%TO.N,Net-(R1-Pad2)*%
X128600000Y-95962500D02*
X131300000Y-95962500D01*
X124897500Y-92260000D02*
X128600000Y-95962500D01*
X124100000Y-92260000D02*
X124897500Y-92260000D01*
%TO.N,VCC*%
X111081664Y-87180000D02*
X116480000Y-87180000D01*
X109413489Y-91638489D02*
X109413489Y-88848175D01*
X110625000Y-92850000D02*
X109413489Y-91638489D01*
X109413489Y-88848175D02*
X111081664Y-87180000D01*
D19*
%TO.N,GND*%
X134300000Y-93037500D02*
X134400000Y-92937500D01*
%TD*%
M02*
