M48
; DRILL file {KiCad 6.0.7-f9a2dced07~116~ubuntu20.04.1} date Sat 29 Oct 2022 06:07:44 PM EDT
; FORMAT={-:-/ absolute / inch / decimal}
; #@! TF.CreationDate,2022-10-29T18:07:44-04:00
; #@! TF.GenerationSoftware,Kicad,Pcbnew,6.0.7-f9a2dced07~116~ubuntu20.04.1
; #@! TF.FileFunction,Plated,1,2,PTH
FMAT,2
INCH
; #@! TA.AperFunction,Plated,PTH,ComponentDrill
T1C0.0276
; #@! TA.AperFunction,Plated,PTH,ComponentDrill
T2C0.0295
; #@! TA.AperFunction,Plated,PTH,ComponentDrill
T3C0.0315
%
G90
G05
T1
X5.6189Y-3.4332
T2
X5.2843Y-3.3946
X5.2843Y-3.4446
X5.2843Y-3.4946
X5.4472Y-3.3752
X5.4472Y-3.4252
X5.4472Y-3.4752
X5.5961Y-3.5917
X5.5961Y-3.6417
X5.5961Y-3.6917
X5.7991Y-3.4987
X5.7991Y-3.5774
T3
X4.7719Y-3.3937
X4.7719Y-3.4937
X4.7719Y-3.5937
X4.7719Y-3.6937
X5.0719Y-3.3937
X5.0719Y-3.4937
X5.0719Y-3.5937
X5.0719Y-3.6937
T0
M30
