%TF.GenerationSoftware,KiCad,Pcbnew,(6.0.4)*%
%TF.CreationDate,2022-08-05T21:50:27-04:00*%
%TF.ProjectId,mc34063_boost_converter,6d633334-3036-4335-9f62-6f6f73745f63,rev?*%
%TF.SameCoordinates,Original*%
%TF.FileFunction,Copper,L1,Top*%
%TF.FilePolarity,Positive*%
%FSLAX46Y46*%
G04 Gerber Fmt 4.6, Leading zero omitted, Abs format (unit mm)*
G04 Created by KiCad (PCBNEW (6.0.4)) date 2022-08-05 21:50:27*
%MOMM*%
%LPD*%
G01*
G04 APERTURE LIST*
G04 Aperture macros list*
%AMRoundRect*
0 Rectangle with rounded corners*
0 $1 Rounding radius*
0 $2 $3 $4 $5 $6 $7 $8 $9 X,Y pos of 4 corners*
0 Add a 4 corners polygon primitive as box body*
4,1,4,$2,$3,$4,$5,$6,$7,$8,$9,$2,$3,0*
0 Add four circle primitives for the rounded corners*
1,1,$1+$1,$2,$3*
1,1,$1+$1,$4,$5*
1,1,$1+$1,$6,$7*
1,1,$1+$1,$8,$9*
0 Add four rect primitives between the rounded corners*
20,1,$1+$1,$2,$3,$4,$5,0*
20,1,$1+$1,$4,$5,$6,$7,0*
20,1,$1+$1,$6,$7,$8,$9,0*
20,1,$1+$1,$8,$9,$2,$3,0*%
G04 Aperture macros list end*
%TA.AperFunction,Profile*%
%ADD10C,0.100000*%
%TD*%
%TA.AperFunction,ComponentPad*%
%ADD11C,2.000000*%
%TD*%
%TA.AperFunction,SMDPad,CuDef*%
%ADD12RoundRect,0.250000X0.625000X-0.312500X0.625000X0.312500X-0.625000X0.312500X-0.625000X-0.312500X0*%
%TD*%
%TA.AperFunction,SMDPad,CuDef*%
%ADD13RoundRect,0.250000X0.312500X0.625000X-0.312500X0.625000X-0.312500X-0.625000X0.312500X-0.625000X0*%
%TD*%
%TA.AperFunction,SMDPad,CuDef*%
%ADD14RoundRect,0.250000X-0.625000X0.312500X-0.625000X-0.312500X0.625000X-0.312500X0.625000X0.312500X0*%
%TD*%
%TA.AperFunction,SMDPad,CuDef*%
%ADD15RoundRect,0.250000X-0.312500X-0.625000X0.312500X-0.625000X0.312500X0.625000X-0.312500X0.625000X0*%
%TD*%
%TA.AperFunction,ComponentPad*%
%ADD16C,2.600000*%
%TD*%
%TA.AperFunction,SMDPad,CuDef*%
%ADD17RoundRect,0.150000X-0.725000X-0.150000X0.725000X-0.150000X0.725000X0.150000X-0.725000X0.150000X0*%
%TD*%
%TA.AperFunction,ComponentPad*%
%ADD18O,2.200000X2.200000*%
%TD*%
%TA.AperFunction,ComponentPad*%
%ADD19R,2.200000X2.200000*%
%TD*%
%TA.AperFunction,ComponentPad*%
%ADD20C,1.600000*%
%TD*%
%TA.AperFunction,ComponentPad*%
%ADD21R,1.600000X1.600000*%
%TD*%
%TA.AperFunction,Conductor*%
%ADD22C,0.500000*%
%TD*%
G04 APERTURE END LIST*
D10*
X129750000Y-99500000D02*
X163750000Y-99500000D01*
X163750000Y-99500000D02*
X163750000Y-119250000D01*
X163750000Y-119250000D02*
X129750000Y-119250000D01*
X129750000Y-119250000D02*
X129750000Y-99500000D01*
D11*
%TO.P,,1*%
%TO.N,GND*%
X159500000Y-116000000D03*
%TD*%
%TO.P,,1*%
%TO.N,Vreg*%
X156257027Y-115746875D03*
%TD*%
%TO.P,,1*%
%TO.N,VCC*%
X132000000Y-102750000D03*
%TD*%
%TO.P,REF\u002A\u002A,1*%
%TO.N,GND*%
X132000000Y-115500000D03*
%TD*%
D12*
%TO.P,C2,1*%
%TO.N,Net-(C2-Pad1)*%
X132500000Y-110212500D03*
%TO.P,C2,2*%
%TO.N,GND*%
X132500000Y-107287500D03*
%TD*%
D13*
%TO.P,C1,1*%
%TO.N,VCC*%
X139962500Y-114000000D03*
%TO.P,C1,2*%
%TO.N,GND*%
X137037500Y-114000000D03*
%TD*%
D14*
%TO.P,R4,1*%
%TO.N,Vreg*%
X144250000Y-109537500D03*
%TO.P,R4,2*%
%TO.N,Net-(R3-Pad2)*%
X144250000Y-112462500D03*
%TD*%
D15*
%TO.P,R3,1*%
%TO.N,GND*%
X143037500Y-115250000D03*
%TO.P,R3,2*%
%TO.N,Net-(R3-Pad2)*%
X145962500Y-115250000D03*
%TD*%
%TO.P,R2,1*%
%TO.N,VCC*%
X136287500Y-103750000D03*
%TO.P,R2,2*%
%TO.N,Net-(L1-Pad1)*%
X139212500Y-103750000D03*
%TD*%
D12*
%TO.P,R1,1*%
%TO.N,Net-(L1-Pad1)*%
X144250000Y-106962500D03*
%TO.P,R1,2*%
%TO.N,Net-(R1-Pad2)*%
X144250000Y-104037500D03*
%TD*%
D16*
%TO.P,L1,1,1*%
%TO.N,Net-(L1-Pad1)*%
X152500000Y-107250000D03*
%TO.P,L1,2,2*%
%TO.N,Net-(D1-Pad1)*%
X152500000Y-101650000D03*
%TD*%
D17*
%TO.P,U1,1*%
%TO.N,Net-(D1-Pad1)*%
X135425000Y-107095000D03*
%TO.P,U1,2*%
%TO.N,GND*%
X135425000Y-108365000D03*
%TO.P,U1,3*%
%TO.N,Net-(C2-Pad1)*%
X135425000Y-109635000D03*
%TO.P,U1,4*%
%TO.N,GND*%
X135425000Y-110905000D03*
%TO.P,U1,5*%
%TO.N,Net-(R3-Pad2)*%
X140575000Y-110905000D03*
%TO.P,U1,6*%
%TO.N,VCC*%
X140575000Y-109635000D03*
%TO.P,U1,7*%
%TO.N,Net-(L1-Pad1)*%
X140575000Y-108365000D03*
%TO.P,U1,8*%
%TO.N,Net-(R1-Pad2)*%
X140575000Y-107095000D03*
%TD*%
D18*
%TO.P,D1,2,K*%
%TO.N,Vreg*%
X161750000Y-113950000D03*
D19*
%TO.P,D1,1,A*%
%TO.N,Net-(D1-Pad1)*%
X161750000Y-101250000D03*
%TD*%
D20*
%TO.P,C3,2*%
%TO.N,GND*%
X149500000Y-113250000D03*
D21*
%TO.P,C3,1*%
%TO.N,Vreg*%
X153000000Y-113250000D03*
%TD*%
D22*
%TO.N,VCC*%
X143464270Y-113750000D02*
X140212500Y-113750000D01*
X144049520Y-114335250D02*
X143464270Y-113750000D01*
X144049520Y-115299520D02*
X144049520Y-114335250D01*
X145500000Y-116750000D02*
X144049520Y-115299520D01*
X146389270Y-116750000D02*
X145500000Y-116750000D01*
X147250000Y-111750000D02*
X147250000Y-115889270D01*
X147750000Y-111250000D02*
X147250000Y-111750000D01*
X150500000Y-111250000D02*
X147750000Y-111250000D01*
X151250000Y-112000000D02*
X150500000Y-111250000D01*
X151250000Y-113749511D02*
X151250000Y-112000000D01*
X147250000Y-115889270D02*
X146389270Y-116750000D01*
X154696875Y-117196386D02*
X151250000Y-113749511D01*
X157053614Y-117196386D02*
X154696875Y-117196386D01*
X157706538Y-116543462D02*
X157053614Y-117196386D01*
X157706538Y-115743543D02*
X157706538Y-116543462D01*
X160159148Y-114550489D02*
X158899592Y-114550489D01*
X161000000Y-115391341D02*
X160159148Y-114550489D01*
X158899592Y-114550489D02*
X157706538Y-115743543D01*
X161000000Y-117500000D02*
X161000000Y-115391341D01*
X140212500Y-113750000D02*
X139962500Y-114000000D01*
X159750000Y-118750000D02*
X161000000Y-117500000D01*
X133200081Y-118750000D02*
X159750000Y-118750000D01*
X130550489Y-116100408D02*
X133200081Y-118750000D01*
X130550489Y-104199511D02*
X130550489Y-116100408D01*
X132000000Y-102750000D02*
X130550489Y-104199511D01*
%TO.N,GND*%
X143037500Y-115912500D02*
X143037500Y-115250000D01*
X144625000Y-117500000D02*
X143037500Y-115912500D01*
X146750000Y-117500000D02*
X144625000Y-117500000D01*
X149500000Y-114750000D02*
X146750000Y-117500000D01*
X149500000Y-113250000D02*
X149500000Y-114750000D01*
%TO.N,Net-(R3-Pad2)*%
X145962500Y-114175000D02*
X144250000Y-112462500D01*
X145962500Y-115250000D02*
X145962500Y-114175000D01*
%TO.N,GND*%
X138362020Y-115324520D02*
X137037500Y-114000000D01*
X142962980Y-115324520D02*
X138362020Y-115324520D01*
X143037500Y-115250000D02*
X142962980Y-115324520D01*
%TO.N,Vreg*%
X156257027Y-115201725D02*
X154305302Y-113250000D01*
X156257027Y-115746875D02*
X156257027Y-115201725D01*
X154305302Y-113250000D02*
X153000000Y-113250000D01*
%TO.N,GND*%
X157500000Y-118000000D02*
X154250000Y-118000000D01*
X154250000Y-118000000D02*
X149500000Y-113250000D01*
X159500000Y-116000000D02*
X157500000Y-118000000D01*
%TO.N,Net-(D1-Pad1)*%
X161350000Y-101650000D02*
X161750000Y-101250000D01*
X152500000Y-101650000D02*
X161350000Y-101650000D01*
%TO.N,Vreg*%
X158910554Y-109860554D02*
X144573054Y-109860554D01*
X161750000Y-112700000D02*
X158910554Y-109860554D01*
X161050000Y-113250000D02*
X161750000Y-113950000D01*
X161750000Y-113950000D02*
X161750000Y-112700000D01*
X153000000Y-113250000D02*
X161050000Y-113250000D01*
X144573054Y-109860554D02*
X144250000Y-109537500D01*
%TO.N,GND*%
X135537500Y-115500000D02*
X137037500Y-114000000D01*
X132000000Y-115500000D02*
X135537500Y-115500000D01*
%TO.N,VCC*%
X139250480Y-110506671D02*
X140122151Y-109635000D01*
X140122151Y-109635000D02*
X140575000Y-109635000D01*
X139962500Y-114000000D02*
X139250480Y-113287980D01*
X139250480Y-113287980D02*
X139250480Y-110506671D01*
%TO.N,GND*%
X133577500Y-108365000D02*
X135425000Y-108365000D01*
X132500000Y-107287500D02*
X133577500Y-108365000D01*
%TO.N,Net-(C2-Pad1)*%
X133077500Y-109635000D02*
X135425000Y-109635000D01*
X132500000Y-110212500D02*
X133077500Y-109635000D01*
%TO.N,GND*%
X136095000Y-110905000D02*
X135425000Y-110905000D01*
X135877849Y-108365000D02*
X136749520Y-109236671D01*
X136749520Y-109236671D02*
X136749520Y-110250480D01*
X135425000Y-108365000D02*
X135877849Y-108365000D01*
X136749520Y-110250480D02*
X136095000Y-110905000D01*
%TO.N,Net-(D1-Pad1)*%
X135095000Y-107095000D02*
X135425000Y-107095000D01*
X133750000Y-105750000D02*
X135095000Y-107095000D01*
X133750000Y-104275480D02*
X133750000Y-105750000D01*
X135600000Y-102425480D02*
X133750000Y-104275480D01*
X152500000Y-101650000D02*
X151724520Y-102425480D01*
%TO.N,Net-(L1-Pad1)*%
X151700000Y-108050000D02*
X145337500Y-108050000D01*
%TO.N,Net-(D1-Pad1)*%
X151724520Y-102425480D02*
X135600000Y-102425480D01*
%TO.N,Net-(L1-Pad1)*%
X145337500Y-108050000D02*
X144250000Y-106962500D01*
X152500000Y-107250000D02*
X151700000Y-108050000D01*
%TO.N,GND*%
X137037500Y-112517500D02*
X135425000Y-110905000D01*
X137037500Y-114000000D02*
X137037500Y-112517500D01*
%TO.N,Net-(L1-Pad1)*%
X140122151Y-108365000D02*
X140575000Y-108365000D01*
X139212500Y-107455349D02*
X140122151Y-108365000D01*
X139212500Y-103750000D02*
X139212500Y-107455349D01*
%TO.N,VCC*%
X139885000Y-109635000D02*
X140575000Y-109635000D01*
X136287500Y-106037500D02*
X139885000Y-109635000D01*
X136287500Y-103750000D02*
X136287500Y-106037500D01*
%TO.N,Net-(R3-Pad2)*%
X142132500Y-112462500D02*
X140575000Y-110905000D01*
X144250000Y-112462500D02*
X142132500Y-112462500D01*
%TO.N,Net-(L1-Pad1)*%
X142847500Y-108365000D02*
X140575000Y-108365000D01*
X144250000Y-106962500D02*
X142847500Y-108365000D01*
%TO.N,Net-(R1-Pad2)*%
X142712500Y-104037500D02*
X144250000Y-104037500D01*
X140575000Y-107095000D02*
X140575000Y-106175000D01*
X140575000Y-106175000D02*
X142712500Y-104037500D01*
%TD*%
M02*
