M48
; DRILL file {KiCad 6.0.2+dfsg-1} date Fri 28 Apr 2023 08:34:54 PM EDT
; FORMAT={-:-/ absolute / inch / decimal}
; #@! TF.CreationDate,2023-04-28T20:34:54-04:00
; #@! TF.GenerationSoftware,Kicad,Pcbnew,6.0.2+dfsg-1
; #@! TF.FileFunction,Plated,1,2,PTH
FMAT,2
INCH
; #@! TA.AperFunction,Plated,PTH,ComponentDrill
T1C0.0300
; #@! TA.AperFunction,Plated,PTH,ComponentDrill
T2C0.0315
; #@! TA.AperFunction,Plated,PTH,ComponentDrill
T3C0.0394
; #@! TA.AperFunction,Plated,PTH,ComponentDrill
T4C0.0433
; #@! TA.AperFunction,Plated,PTH,ComponentDrill
T5C0.0598
%
G90
G05
T1
X4.8106Y-4.0748
X4.9106Y-4.0748
X5.0106Y-4.0748
X5.1106Y-4.0748
T2
X4.7244Y-3.5549
X4.7244Y-3.6533
X4.7244Y-3.7876
X4.7244Y-3.886
X4.9096Y-3.5709
X4.9096Y-3.6709
X4.9096Y-3.7709
X4.9096Y-3.8709
X5.2096Y-3.5709
X5.2096Y-3.6709
X5.2096Y-3.7709
X5.2096Y-3.8709
T3
X5.689Y-3.5236
X5.689Y-3.6236
X5.689Y-3.7236
X5.689Y-3.8236
X5.689Y-3.9236
T4
X5.3445Y-3.5827
X5.3445Y-3.8386
X5.5217Y-3.5827
X5.5217Y-3.8386
T5
X5.3134Y-4.0945
X5.5134Y-4.0945
T0
M30
